<?xml version="1.0" encoding="utf-8"?>
<!-- Generator: Adobe Illustrator 25.3.1, SVG Export Plug-In . SVG Version: 6.00 Build 0)  -->
<svg version="1.1" id="Layer_1" xmlns="http://www.w3.org/2000/svg" xmlns:xlink="http://www.w3.org/1999/xlink" x="0px" y="0px"
	 viewBox="0 0 1338 1135.7" style="enable-background:new 0 0 1338 1135.7;" xml:space="preserve">
<style type="text/css">
	.st0{fill:#D8E7E7;}
	.st1{fill:#FFFFFF;}
	.st2{fill:#A8CFD8;}
	.st3{fill:#FF9E99;}
	.st4{opacity:0.32;}
	.st5{fill:#FF8980;}
	.st6{fill:#2F3A56;}
</style>
<g>
	<g>
		<g>
			<g>
				<path class="st0" d="M1004.6,840.3H811.5c-0.7,0-1.3-0.6-1.3-1.3l0,0c0-0.7,0.6-1.3,1.3-1.3h193.1c0.7,0,1.3,0.6,1.3,1.3l0,0
					C1005.9,839.7,1005.3,840.3,1004.6,840.3z"/>
			</g>
		</g>
	</g>
	<g>
		<g>
			<g>
				<path class="st0" d="M953.2,853.4h-65.5c-0.7,0-1.3-0.6-1.3-1.3l0,0c0-0.7,0.6-1.3,1.3-1.3h65.5c0.7,0,1.3,0.6,1.3,1.3l0,0
					C954.5,852.8,953.9,853.4,953.2,853.4z"/>
			</g>
		</g>
	</g>
	<g>
		<g>
			<g>
				<path class="st0" d="M1032.4,853.4H967c-0.7,0-1.3-0.6-1.3-1.3l0,0c0-0.7,0.6-1.3,1.3-1.3h65.4c0.7,0,1.3,0.6,1.3,1.3l0,0
					C1033.7,852.8,1033.1,853.4,1032.4,853.4z"/>
			</g>
		</g>
	</g>
	<g>
		<g>
			<g>
				<path class="st0" d="M1111.6,853.4h-65.4c-0.7,0-1.3-0.6-1.3-1.3l0,0c0-0.7,0.6-1.3,1.3-1.3h65.4c0.7,0,1.3,0.6,1.3,1.3l0,0
					C1112.9,852.8,1112.3,853.4,1111.6,853.4z"/>
			</g>
		</g>
	</g>
	<g>
		<g>
			<g>
				<path class="st0" d="M1135.5,853.4h-10c-0.7,0-1.3-0.6-1.3-1.3l0,0c0-0.7,0.6-1.3,1.3-1.3h10c0.7,0,1.3,0.6,1.3,1.3l0,0
					C1136.7,852.8,1136.2,853.4,1135.5,853.4z"/>
			</g>
		</g>
	</g>
	<g>
		<g>
			<g>
				<path class="st0" d="M953.2,944.9H811.5c-0.7,0-1.3-0.6-1.3-1.3l0,0c0-0.7,0.6-1.3,1.3-1.3h141.6c0.7,0,1.3,0.6,1.3,1.3l0,0
					C954.5,944.3,953.9,944.9,953.2,944.9z"/>
			</g>
		</g>
	</g>
	<g>
		<g>
			<g>
				<path class="st0" d="M1035.5,944.9H970c-0.7,0-1.3-0.6-1.3-1.3l0,0c0-0.7,0.6-1.3,1.3-1.3h65.5c0.7,0,1.3,0.6,1.3,1.3l0,0
					C1036.7,944.3,1036.2,944.9,1035.5,944.9z"/>
			</g>
		</g>
	</g>
	<g>
		<g>
			<g>
				<path class="st0" d="M1059.3,944.9h-10c-0.7,0-1.3-0.6-1.3-1.3l0,0c0-0.7,0.6-1.3,1.3-1.3h10c0.7,0,1.3,0.6,1.3,1.3l0,0
					C1060.6,944.3,1060,944.9,1059.3,944.9z"/>
			</g>
		</g>
	</g>
	<g>
		<g>
			<g>
				<path class="st0" d="M876.8,958h-65.5c-0.7,0-1.3-0.6-1.3-1.3l0,0c0-0.7,0.6-1.3,1.3-1.3h65.5c0.7,0,1.3,0.6,1.3,1.3l0,0
					C878.1,957.4,877.5,958,876.8,958z"/>
			</g>
		</g>
	</g>
	<g>
		<g>
			<g>
				<path class="st0" d="M900.6,958h-10c-0.7,0-1.3-0.6-1.3-1.3l0,0c0-0.7,0.6-1.3,1.3-1.3h10c0.7,0,1.3,0.6,1.3,1.3l0,0
					C901.9,957.4,901.3,958,900.6,958z"/>
			</g>
		</g>
	</g>
	<g>
		<g>
			<g>
				<path class="st0" d="M923.4,958h-10c-0.7,0-1.3-0.6-1.3-1.3l0,0c0-0.7,0.6-1.3,1.3-1.3h10c0.7,0,1.3,0.6,1.3,1.3l0,0
					C924.7,957.4,924.1,958,923.4,958z"/>
			</g>
		</g>
	</g>
	<g>
		<g>
			<g>
				<path class="st0" d="M1090.4,971.1H1025c-0.7,0-1.3-0.6-1.3-1.3l0,0c0-0.7,0.6-1.3,1.3-1.3h65.5c0.7,0,1.3,0.6,1.3,1.3l0,0
					C1091.7,970.5,1091.1,971.1,1090.4,971.1z"/>
			</g>
		</g>
	</g>
	<g>
		<g>
			<g>
				<path class="st0" d="M876.8,984.1h-65.5c-0.7,0-1.3-0.6-1.3-1.3l0,0c0-0.7,0.6-1.3,1.3-1.3h65.5c0.7,0,1.3,0.6,1.3,1.3l0,0
					C878.1,983.5,877.5,984.1,876.8,984.1z"/>
			</g>
		</g>
	</g>
	<g>
		<g>
			<g>
				<path class="st0" d="M953.2,984.1h-65.5c-0.7,0-1.3-0.6-1.3-1.3l0,0c0-0.7,0.6-1.3,1.3-1.3h65.5c0.7,0,1.3,0.6,1.3,1.3l0,0
					C954.5,983.5,953.9,984.1,953.2,984.1z"/>
			</g>
		</g>
	</g>
	<g>
		<g>
			<g>
				<path class="st0" d="M1114.2,971.1h-10c-0.7,0-1.3-0.6-1.3-1.3l0,0c0-0.7,0.6-1.3,1.3-1.3h10c0.7,0,1.3,0.6,1.3,1.3l0,0
					C1115.5,970.5,1115,971.1,1114.2,971.1z"/>
			</g>
		</g>
	</g>
	<g>
		<g>
			<g>
				<path class="st0" d="M980,984.1h-10c-0.7,0-1.3-0.6-1.3-1.3l0,0c0-0.7,0.6-1.3,1.3-1.3h10c0.7,0,1.3,0.6,1.3,1.3l0,0
					C981.3,983.5,980.8,984.1,980,984.1z"/>
			</g>
		</g>
	</g>
	<g>
		<g>
			<g>
				<path class="st0" d="M927.1,1010.3h-10c-0.7,0-1.3-0.6-1.3-1.3l0,0c0-0.7,0.6-1.3,1.3-1.3h10c0.7,0,1.3,0.6,1.3,1.3l0,0
					C928.4,1009.7,927.8,1010.3,927.1,1010.3z"/>
			</g>
		</g>
	</g>
	<g>
		<g>
			<g>
				<path class="st0" d="M873,1023.3h-10c-0.7,0-1.3-0.6-1.3-1.3l0,0c0-0.7,0.6-1.3,1.3-1.3h10c0.7,0,1.3,0.6,1.3,1.3l0,0
					C874.3,1022.8,873.7,1023.3,873,1023.3z"/>
			</g>
		</g>
	</g>
	<g>
		<g>
			<g>
				<path class="st0" d="M973.2,1036.4h-10c-0.7,0-1.3-0.6-1.3-1.3l0,0c0-0.7,0.6-1.3,1.3-1.3h10c0.7,0,1.3,0.6,1.3,1.3l0,0
					C974.5,1035.8,973.9,1036.4,973.2,1036.4z"/>
			</g>
		</g>
	</g>
	<g>
		<g>
			<g>
				<path class="st0" d="M1142.3,984.1h-65.5c-0.7,0-1.3-0.6-1.3-1.3l0,0c0-0.7,0.6-1.3,1.3-1.3h65.5c0.7,0,1.3,0.6,1.3,1.3l0,0
					C1143.6,983.5,1143,984.1,1142.3,984.1z"/>
			</g>
		</g>
	</g>
	<g>
		<g>
			<g>
				<path class="st0" d="M1088.8,997.2h-65.5c-0.7,0-1.3-0.6-1.3-1.3l0,0c0-0.7,0.6-1.3,1.3-1.3h65.5c0.7,0,1.3,0.6,1.3,1.3l0,0
					C1090.1,996.6,1089.5,997.2,1088.8,997.2z"/>
			</g>
		</g>
	</g>
	<g>
		<g>
			<g>
				<path class="st0" d="M1169.2,984.1h-10c-0.7,0-1.3-0.6-1.3-1.3l0,0c0-0.7,0.6-1.3,1.3-1.3h10c0.7,0,1.3,0.6,1.3,1.3l0,0
					C1170.5,983.5,1169.9,984.1,1169.2,984.1z"/>
			</g>
		</g>
	</g>
	<g>
		<g>
			<g>
				<path class="st0" d="M1005.7,984.1h-10c-0.7,0-1.3-0.6-1.3-1.3l0,0c0-0.7,0.6-1.3,1.3-1.3h10c0.7,0,1.3,0.6,1.3,1.3l0,0
					C1006.9,983.5,1006.4,984.1,1005.7,984.1z"/>
			</g>
		</g>
	</g>
	<g>
		<g>
			<g>
				<path class="st0" d="M1031.3,984.1h-10c-0.7,0-1.3-0.6-1.3-1.3l0,0c0-0.7,0.6-1.3,1.3-1.3h10c0.7,0,1.3,0.6,1.3,1.3l0,0
					C1032.5,983.5,1032,984.1,1031.3,984.1z"/>
			</g>
		</g>
	</g>
	<g>
		<g>
			<g>
				<path class="st0" d="M1056.9,984.1h-10c-0.7,0-1.3-0.6-1.3-1.3l0,0c0-0.7,0.6-1.3,1.3-1.3h10c0.7,0,1.3,0.6,1.3,1.3l0,0
					C1058.1,983.5,1057.6,984.1,1056.9,984.1z"/>
			</g>
		</g>
	</g>
	<g>
		<g>
			<g>
				<path class="st0" d="M1137,971.1h-10c-0.7,0-1.3-0.6-1.3-1.3l0,0c0-0.7,0.6-1.3,1.3-1.3h10c0.7,0,1.3,0.6,1.3,1.3l0,0
					C1138.3,970.5,1137.8,971.1,1137,971.1z"/>
			</g>
		</g>
	</g>
	<g>
		<g>
			<g>
				<path class="st0" d="M946.2,958h-10c-0.7,0-1.3-0.6-1.3-1.3l0,0c0-0.7,0.6-1.3,1.3-1.3h10c0.7,0,1.3,0.6,1.3,1.3l0,0
					C947.5,957.4,946.9,958,946.2,958z"/>
			</g>
		</g>
	</g>
	<g>
		<g>
			<g>
				<path class="st0" d="M953.2,866.5h-65.5c-0.7,0-1.3-0.6-1.3-1.3l0,0c0-0.7,0.6-1.3,1.3-1.3h65.5c0.7,0,1.3,0.6,1.3,1.3l0,0
					C954.5,865.9,953.9,866.5,953.2,866.5z"/>
			</g>
		</g>
	</g>
	<g>
		<g>
			<g>
				<path class="st0" d="M953.2,905.7h-65.5c-0.7,0-1.3-0.6-1.3-1.3l0,0c0-0.7,0.6-1.3,1.3-1.3h65.5c0.7,0,1.3,0.6,1.3,1.3l0,0
					C954.5,905.1,953.9,905.7,953.2,905.7z"/>
			</g>
		</g>
	</g>
	<g>
		<g>
			<g>
				<path class="st0" d="M953.2,918.8h-65.5c-0.7,0-1.3-0.6-1.3-1.3l0,0c0-0.7,0.6-1.3,1.3-1.3h65.5c0.7,0,1.3,0.6,1.3,1.3l0,0
					C954.5,918.2,953.9,918.8,953.2,918.8z"/>
			</g>
		</g>
	</g>
	<g>
		<g>
			<g>
				<path class="st0" d="M953.2,931.8h-65.5c-0.7,0-1.3-0.6-1.3-1.3l0,0c0-0.7,0.6-1.3,1.3-1.3h65.5c0.7,0,1.3,0.6,1.3,1.3l0,0
					C954.5,931.3,953.9,931.8,953.2,931.8z"/>
			</g>
		</g>
	</g>
	<g>
		<g>
			<g>
				<path class="st0" d="M1108.3,892.6h-65.5c-0.7,0-1.3-0.6-1.3-1.3l0,0c0-0.7,0.6-1.3,1.3-1.3h65.5c0.7,0,1.3,0.6,1.3,1.3l0,0
					C1109.6,892,1109,892.6,1108.3,892.6z"/>
			</g>
		</g>
	</g>
	<g>
		<g>
			<g>
				<path class="st0" d="M977,866.5h-10c-0.7,0-1.3-0.6-1.3-1.3l0,0c0-0.7,0.6-1.3,1.3-1.3h10c0.7,0,1.3,0.6,1.3,1.3l0,0
					C978.3,865.9,977.7,866.5,977,866.5z"/>
			</g>
		</g>
	</g>
	<g>
		<g>
			<g>
				<path class="st0" d="M1028.7,892.6h-10c-0.7,0-1.3-0.6-1.3-1.3l0,0c0-0.7,0.6-1.3,1.3-1.3h10c0.7,0,1.3,0.6,1.3,1.3l0,0
					C1030,892,1029.4,892.6,1028.7,892.6z"/>
			</g>
		</g>
	</g>
	<g>
		<g>
			<g>
				<path class="st0" d="M1109.2,879.5H811.5c-0.7,0-1.3-0.6-1.3-1.3l0,0c0-0.7,0.6-1.3,1.3-1.3h297.7c0.7,0,1.3,0.6,1.3,1.3l0,0
					C1110.5,879,1109.9,879.5,1109.2,879.5z"/>
			</g>
		</g>
	</g>
	<g>
		<g>
			<g>
				<path class="st0" d="M1004.6,892.6H811.5c-0.7,0-1.3-0.6-1.3-1.3l0,0c0-0.7,0.6-1.3,1.3-1.3h193.1c0.7,0,1.3,0.6,1.3,1.3l0,0
					C1005.9,892,1005.3,892.6,1004.6,892.6z"/>
			</g>
		</g>
	</g>
	<g>
		<g>
			<g>
				<path class="st0" d="M1004.6,971.1H811.5c-0.7,0-1.3-0.6-1.3-1.3l0,0c0-0.7,0.6-1.3,1.3-1.3h193.1c0.7,0,1.3,0.6,1.3,1.3l0,0
					C1005.9,970.5,1005.3,971.1,1004.6,971.1z"/>
			</g>
		</g>
	</g>
	<g>
		<g>
			<g>
				<path class="st0" d="M1004.6,997.2H811.5c-0.7,0-1.3-0.6-1.3-1.3l0,0c0-0.7,0.6-1.3,1.3-1.3h193.1c0.7,0,1.3,0.6,1.3,1.3l0,0
					C1005.9,996.6,1005.3,997.2,1004.6,997.2z"/>
			</g>
		</g>
	</g>
	<g>
		<g>
			<g>
				<path class="st0" d="M905.5,1010.3h-94c-0.7,0-1.3-0.6-1.3-1.3l0,0c0-0.7,0.6-1.3,1.3-1.3h94c0.7,0,1.3,0.6,1.3,1.3l0,0
					C906.8,1009.7,906.2,1010.3,905.5,1010.3z"/>
			</g>
		</g>
	</g>
	<g>
		<g>
			<g>
				<path class="st0" d="M1214.6,1023.3H881.3c-0.7,0-1.3-0.6-1.3-1.3l0,0c0-0.7,0.6-1.3,1.3-1.3h333.3c0.7,0,1.3,0.6,1.3,1.3l0,0
					C1215.9,1022.8,1215.3,1023.3,1214.6,1023.3z"/>
			</g>
		</g>
	</g>
	<g>
		<g>
			<g>
				<path class="st0" d="M947.1,1036.4h-65.8c-0.7,0-1.3-0.6-1.3-1.3l0,0c0-0.7,0.6-1.3,1.3-1.3h65.8c0.7,0,1.3,0.6,1.3,1.3l0,0
					C948.3,1035.8,947.8,1036.4,947.1,1036.4z"/>
			</g>
		</g>
	</g>
	<g>
		<g>
			<g>
				<path class="st0" d="M973.2,1075.6h-10c-0.7,0-1.3-0.6-1.3-1.3l0,0c0-0.7,0.6-1.3,1.3-1.3h10c0.7,0,1.3,0.6,1.3,1.3l0,0
					C974.5,1075.1,973.9,1075.6,973.2,1075.6z"/>
			</g>
		</g>
	</g>
	<g>
		<g>
			<g>
				<path class="st0" d="M947.1,1075.6h-65.8c-0.7,0-1.3-0.6-1.3-1.3l0,0c0-0.7,0.6-1.3,1.3-1.3h65.8c0.7,0,1.3,0.6,1.3,1.3l0,0
					C948.3,1075.1,947.8,1075.6,947.1,1075.6z"/>
			</g>
		</g>
	</g>
	<g>
		<g>
			<g>
				<path class="st0" d="M878.7,1049.5h-67.2c-0.7,0-1.3-0.6-1.3-1.3l0,0c0-0.7,0.6-1.3,1.3-1.3h67.2c0.7,0,1.3,0.6,1.3,1.3l0,0
					C880,1048.9,879.4,1049.5,878.7,1049.5z"/>
			</g>
		</g>
	</g>
	<g>
		<g>
			<g>
				<path class="st0" d="M973.2,1049.5h-67.2c-0.7,0-1.3-0.6-1.3-1.3l0,0c0-0.7,0.6-1.3,1.3-1.3h67.2c0.7,0,1.3,0.6,1.3,1.3l0,0
					C974.5,1048.9,973.9,1049.5,973.2,1049.5z"/>
			</g>
		</g>
	</g>
	<g>
		<g>
			<g>
				<path class="st0" d="M1067.7,1049.5h-67.2c-0.7,0-1.3-0.6-1.3-1.3l0,0c0-0.7,0.6-1.3,1.3-1.3h67.2c0.7,0,1.3,0.6,1.3,1.3l0,0
					C1069,1048.9,1068.5,1049.5,1067.7,1049.5z"/>
			</g>
		</g>
	</g>
	<g>
		<g>
			<g>
				<path class="st0" d="M1004.6,1062.6H811.5c-0.7,0-1.3-0.6-1.3-1.3l0,0c0-0.7,0.6-1.3,1.3-1.3h193.1c0.7,0,1.3,0.6,1.3,1.3l0,0
					C1005.9,1062,1005.3,1062.6,1004.6,1062.6z"/>
			</g>
		</g>
	</g>
	<g>
		<g>
			<g>
				<path class="st0" d="M1078.6,840.3H1025c-0.7,0-1.3-0.6-1.3-1.3l0,0c0-0.7,0.6-1.3,1.3-1.3h53.7c0.7,0,1.3,0.6,1.3,1.3l0,0
					C1079.9,839.7,1079.3,840.3,1078.6,840.3z"/>
			</g>
		</g>
	</g>
	<g>
		<g>
			<g>
				<path class="st0" d="M1261.1,840.3h-165.4c-0.7,0-1.3-0.6-1.3-1.3l0,0c0-0.7,0.6-1.3,1.3-1.3h165.4c0.7,0,1.3,0.6,1.3,1.3l0,0
					C1262.4,839.7,1261.8,840.3,1261.1,840.3z"/>
			</g>
		</g>
	</g>
</g>
<g>
	<g>
		<path class="st1" d="M1336.1,1135.7H2c-1.1,0-2-0.9-2-2c0-1.1,0.9-2,2-2h1334.1c1.1,0,2,0.9,2,2
			C1338,1134.8,1337.2,1135.7,1336.1,1135.7z"/>
	</g>
</g>
<g>
	<path class="st2" d="M386.4,1065.1H92.1c-2.4,0-4.4-2-4.4-4.4v-494c0-2.4,2-4.4,4.4-4.4h294.3c2.4,0,4.4,2,4.4,4.4v494
		C390.8,1063.2,388.8,1065.1,386.4,1065.1z"/>
</g>
<g>
	<path class="st2" d="M765.5,562.4H435.3c-2.4,0-4.4-2-4.4-4.4V4.4c0-2.4,2-4.4,4.4-4.4h330.2c2.4,0,4.4,2,4.4,4.4V558
		C769.9,560.4,768,562.4,765.5,562.4z"/>
</g>
<g>
	<path class="st2" d="M1198.1,791.6H814.4c-2.4,0-4.4-2-4.4-4.4V145c0-2.4,2-4.4,4.4-4.4h383.6c2.4,0,4.4,2,4.4,4.4v642.2
		C1202.4,789.6,1200.5,791.6,1198.1,791.6z"/>
</g>
<g>
	<path class="st2" d="M386.4,502.7H136c-2.4,0-4.4-2-4.4-4.4V77.2c0-2.4,2-4.4,4.4-4.4h250.4c2.4,0,4.4,2,4.4,4.4v421.2
		C390.8,500.8,388.8,502.7,386.4,502.7z"/>
</g>
<g>
	
		<ellipse transform="matrix(0.9222 -0.3866 0.3866 0.9222 -68.862 118.9238)" class="st0" cx="261.2" cy="230.6" rx="66.1" ry="66.1"/>
</g>
<g>
	<path class="st1" d="M214.3,277.2c12,12.1,28.6,19.5,46.9,19.5c18.3,0,34.9-7.5,46.9-19.5c-4-18-18-32.3-36-36.5
		c7.4-3.9,12.5-11.7,12.5-20.7c0-12.9-10.5-23.4-23.4-23.4s-23.4,10.5-23.4,23.4c0,9,5.1,16.8,12.5,20.7
		C232.3,244.9,218.3,259.1,214.3,277.2z"/>
</g>
<g>
	<path class="st0" d="M312.2,343.5H210.2c-2,0-3.6-1.6-3.6-3.6l0,0c0-2,1.6-3.6,3.6-3.6h102.1c2,0,3.6,1.6,3.6,3.6l0,0
		C315.8,341.9,314.2,343.5,312.2,343.5z"/>
</g>
<g>
	<path class="st0" d="M312.2,363.4H210.2c-2,0-3.6-1.6-3.6-3.6l0,0c0-2,1.6-3.6,3.6-3.6h102.1c2,0,3.6,1.6,3.6,3.6l0,0
		C315.8,361.8,314.2,363.4,312.2,363.4z"/>
</g>
<g>
	<path class="st3" d="M359.1,713H257.1c-2,0-3.6-1.6-3.6-3.6l0,0c0-2,1.6-3.6,3.6-3.6h102.1c2,0,3.6,1.6,3.6,3.6l0,0
		C362.7,711.4,361.1,713,359.1,713z"/>
</g>
<g>
	<path class="st3" d="M291.8,727.7h-36.9c-0.8,0-1.4-0.6-1.4-1.4l0,0c0-0.8,0.6-1.4,1.4-1.4h36.9c0.8,0,1.4,0.6,1.4,1.4l0,0
		C293.2,727,292.6,727.7,291.8,727.7z"/>
</g>
<g>
	<path class="st0" d="M291.8,789.5h-36.9c-0.8,0-1.4-0.6-1.4-1.4l0,0c0-0.8,0.6-1.4,1.4-1.4h36.9c0.8,0,1.4,0.6,1.4,1.4l0,0
		C293.2,788.8,292.6,789.5,291.8,789.5z"/>
</g>
<g>
	<path class="st0" d="M291.8,851.3h-36.9c-0.8,0-1.4-0.6-1.4-1.4l0,0c0-0.8,0.6-1.4,1.4-1.4h36.9c0.8,0,1.4,0.6,1.4,1.4l0,0
		C293.2,850.6,292.6,851.3,291.8,851.3z"/>
</g>
<g>
	<path class="st0" d="M291.8,913.1h-36.9c-0.8,0-1.4-0.6-1.4-1.4l0,0c0-0.8,0.6-1.4,1.4-1.4h36.9c0.8,0,1.4,0.6,1.4,1.4l0,0
		C293.2,912.4,292.6,913.1,291.8,913.1z"/>
</g>
<g>
	<path class="st0" d="M291.8,974.9h-36.9c-0.8,0-1.4-0.6-1.4-1.4l0,0c0-0.8,0.6-1.4,1.4-1.4h36.9c0.8,0,1.4,0.6,1.4,1.4l0,0
		C293.2,974.3,292.6,974.9,291.8,974.9z"/>
</g>
<g>
	<path class="st0" d="M291.8,1036.7h-36.9c-0.8,0-1.4-0.6-1.4-1.4l0,0c0-0.8,0.6-1.4,1.4-1.4h36.9c0.8,0,1.4,0.6,1.4,1.4l0,0
		C293.2,1036.1,292.6,1036.7,291.8,1036.7z"/>
</g>
<g>
	<path class="st3" d="M359.1,774.8H257.1c-2,0-3.6-1.6-3.6-3.6l0,0c0-2,1.6-3.6,3.6-3.6h102.1c2,0,3.6,1.6,3.6,3.6l0,0
		C362.7,773.2,361.1,774.8,359.1,774.8z"/>
</g>
<g>
	<path class="st0" d="M359.1,836.6H257.1c-2,0-3.6-1.6-3.6-3.6l0,0c0-2,1.6-3.6,3.6-3.6h102.1c2,0,3.6,1.6,3.6,3.6l0,0
		C362.7,835,361.1,836.6,359.1,836.6z"/>
</g>
<g>
	<path class="st0" d="M359.1,898.4H257.1c-2,0-3.6-1.6-3.6-3.6l0,0c0-2,1.6-3.6,3.6-3.6h102.1c2,0,3.6,1.6,3.6,3.6l0,0
		C362.7,896.8,361.1,898.4,359.1,898.4z"/>
</g>
<g>
	<path class="st0" d="M359.1,960.2H257.1c-2,0-3.6-1.6-3.6-3.6l0,0c0-2,1.6-3.6,3.6-3.6h102.1c2,0,3.6,1.6,3.6,3.6l0,0
		C362.7,958.7,361.1,960.2,359.1,960.2z"/>
</g>
<g>
	<path class="st0" d="M359.1,1022.1H257.1c-2,0-3.6-1.6-3.6-3.6l0,0c0-2,1.6-3.6,3.6-3.6h102.1c2,0,3.6,1.6,3.6,3.6l0,0
		C362.7,1020.5,361.1,1022.1,359.1,1022.1z"/>
</g>
<g>
	<g>
		<path class="st0" d="M130.3,585.5h-18.1c-0.7,0-1.3-0.6-1.3-1.3l0,0c0-0.7,0.6-1.3,1.3-1.3h18.1c0.7,0,1.3,0.6,1.3,1.3l0,0
			C131.6,584.9,131,585.5,130.3,585.5z"/>
	</g>
	<g>
		<path class="st0" d="M130.3,590.8h-18.1c-0.7,0-1.3-0.6-1.3-1.3l0,0c0-0.7,0.6-1.3,1.3-1.3h18.1c0.7,0,1.3,0.6,1.3,1.3l0,0
			C131.6,590.2,131,590.8,130.3,590.8z"/>
	</g>
	<g>
		<path class="st0" d="M130.3,596.1h-18.1c-0.7,0-1.3-0.6-1.3-1.3l0,0c0-0.7,0.6-1.3,1.3-1.3h18.1c0.7,0,1.3,0.6,1.3,1.3l0,0
			C131.6,595.5,131,596.1,130.3,596.1z"/>
	</g>
</g>
<g>
	<path class="st0" d="M350.3,658.5H128.2c-9.5,0-17.4-7.8-17.4-17.4l0,0c0-9.5,7.8-17.4,17.4-17.4h222.1c9.5,0,17.4,7.8,17.4,17.4
		l0,0C367.7,650.7,359.9,658.5,350.3,658.5z"/>
</g>
<g>
	<g>
		<path class="st0" d="M479.7,32.4h-18.1c-0.7,0-1.3-0.6-1.3-1.3l0,0c0-0.7,0.6-1.3,1.3-1.3h18.1c0.7,0,1.3,0.6,1.3,1.3l0,0
			C481,31.8,480.4,32.4,479.7,32.4z"/>
	</g>
	<g>
		<path class="st0" d="M479.7,37.7h-18.1c-0.7,0-1.3-0.6-1.3-1.3l0,0c0-0.7,0.6-1.3,1.3-1.3h18.1c0.7,0,1.3,0.6,1.3,1.3l0,0
			C481,37.1,480.4,37.7,479.7,37.7z"/>
	</g>
	<g>
		<path class="st0" d="M479.7,43h-18.1c-0.7,0-1.3-0.6-1.3-1.3l0,0c0-0.7,0.6-1.3,1.3-1.3h18.1c0.7,0,1.3,0.6,1.3,1.3l0,0
			C481,42.4,480.4,43,479.7,43z"/>
	</g>
</g>
<g>
	<path class="st0" d="M723.2,105.4H477.6c-9.5,0-17.4-7.8-17.4-17.4l0,0c0-9.5,7.8-17.4,17.4-17.4h245.6c9.5,0,17.4,7.8,17.4,17.4
		l0,0C740.6,97.6,732.8,105.4,723.2,105.4z"/>
</g>
<g>
	<path class="st0" d="M171.7,727.7h-42.6c-10,0-18.2-8.2-18.2-18.2l0,0c0-10,8.2-18.2,18.2-18.2h42.6c10,0,18.2,8.2,18.2,18.2l0,0
		C189.9,719.5,181.7,727.7,171.7,727.7z"/>
</g>
<g>
	<path class="st0" d="M171.7,789.5h-42.6c-10,0-18.2-8.2-18.2-18.2l0,0c0-10,8.2-18.2,18.2-18.2h42.6c10,0,18.2,8.2,18.2,18.2l0,0
		C189.9,781.3,181.7,789.5,171.7,789.5z"/>
</g>
<g>
	<path class="st0" d="M171.7,851.3h-42.6c-10,0-18.2-8.2-18.2-18.2l0,0c0-10,8.2-18.2,18.2-18.2h42.6c10,0,18.2,8.2,18.2,18.2l0,0
		C189.9,843.1,181.7,851.3,171.7,851.3z"/>
</g>
<g>
	<path class="st0" d="M171.7,913.1h-42.6c-10,0-18.2-8.2-18.2-18.2l0,0c0-10,8.2-18.2,18.2-18.2h42.6c10,0,18.2,8.2,18.2,18.2l0,0
		C189.9,904.9,181.7,913.1,171.7,913.1z"/>
</g>
<g>
	<path class="st0" d="M171.7,974.9h-42.6c-10,0-18.2-8.2-18.2-18.2l0,0c0-10,8.2-18.2,18.2-18.2h42.6c10,0,18.2,8.2,18.2,18.2l0,0
		C189.9,966.7,181.7,974.9,171.7,974.9z"/>
</g>
<g>
	<path class="st0" d="M171.7,1036.7h-42.6c-10,0-18.2-8.2-18.2-18.2l0,0c0-10,8.2-18.2,18.2-18.2h42.6c10,0,18.2,8.2,18.2,18.2l0,0
		C189.9,1028.5,181.7,1036.7,171.7,1036.7z"/>
</g>
<g>
	<g>
		<rect x="610.3" y="147.4" class="st0" width="130.3" height="136.6"/>
	</g>
	<g>
		<g>
			<path class="st0" d="M680.8,306.1h-68.3c-1.2,0-2.2-1-2.2-2.2l0,0c0-1.2,1-2.2,2.2-2.2h68.3c1.2,0,2.2,1,2.2,2.2l0,0
				C683,305.1,682,306.1,680.8,306.1z"/>
		</g>
		<g>
			<path class="st0" d="M738.4,306.1h-27.6c-1.2,0-2.2-1-2.2-2.2l0,0c0-1.2,1-2.2,2.2-2.2h27.6c1.2,0,2.2,1,2.2,2.2l0,0
				C740.6,305.1,739.6,306.1,738.4,306.1z"/>
		</g>
		<g>
			<path class="st0" d="M680.8,318h-68.3c-1.2,0-2.2-1-2.2-2.2l0,0c0-1.2,1-2.2,2.2-2.2h68.3c1.2,0,2.2,1,2.2,2.2l0,0
				C683,317,682,318,680.8,318z"/>
		</g>
	</g>
</g>
<g>
	<g>
		<rect x="460.3" y="147.4" class="st0" width="130.3" height="136.6"/>
	</g>
	<g>
		<g>
			<path class="st0" d="M530.8,306.1h-68.3c-1.2,0-2.2-1-2.2-2.2l0,0c0-1.2,1-2.2,2.2-2.2h68.3c1.2,0,2.2,1,2.2,2.2l0,0
				C533,305.1,532,306.1,530.8,306.1z"/>
		</g>
		<g>
			<path class="st0" d="M588.3,306.1h-27.6c-1.2,0-2.2-1-2.2-2.2l0,0c0-1.2,1-2.2,2.2-2.2h27.6c1.2,0,2.2,1,2.2,2.2l0,0
				C590.6,305.1,589.6,306.1,588.3,306.1z"/>
		</g>
		<g>
			<path class="st0" d="M530.8,318h-68.3c-1.2,0-2.2-1-2.2-2.2l0,0c0-1.2,1-2.2,2.2-2.2h68.3c1.2,0,2.2,1,2.2,2.2l0,0
				C533,317,532,318,530.8,318z"/>
		</g>
	</g>
</g>
<g>
	<g>
		<g>
			<path class="st0" d="M862.3,177.1h-21.5c-0.9,0-1.6-0.7-1.6-1.6l0,0c0-0.9,0.7-1.6,1.6-1.6h21.5c0.9,0,1.6,0.7,1.6,1.6l0,0
				C863.9,176.3,863.2,177.1,862.3,177.1z"/>
		</g>
		<g>
			<path class="st0" d="M862.3,183.4h-21.5c-0.9,0-1.6-0.7-1.6-1.6l0,0c0-0.9,0.7-1.6,1.6-1.6h21.5c0.9,0,1.6,0.7,1.6,1.6l0,0
				C863.9,182.7,863.2,183.4,862.3,183.4z"/>
		</g>
		<g>
			<path class="st0" d="M862.3,189.7h-21.5c-0.9,0-1.6-0.7-1.6-1.6l0,0c0-0.9,0.7-1.6,1.6-1.6h21.5c0.9,0,1.6,0.7,1.6,1.6l0,0
				C863.9,189,863.2,189.7,862.3,189.7z"/>
		</g>
	</g>
	<g>
		<path class="st0" d="M1152.6,264.1H859.9c-11.4,0-20.7-9.3-20.7-20.7l0,0c0-11.4,9.3-20.7,20.7-20.7h292.8
			c11.4,0,20.7,9.3,20.7,20.7l0,0C1173.3,254.8,1164,264.1,1152.6,264.1z"/>
	</g>
	<g>
		<path class="st0" d="M1050.6,750.8h-88.7c-10.7,0-19.5-8.8-19.5-19.5l0,0c0-10.7,8.8-19.5,19.5-19.5h88.7
			c10.7,0,19.5,8.8,19.5,19.5l0,0C1070.1,742.1,1061.3,750.8,1050.6,750.8z"/>
	</g>
	<g>
		<rect x="839.2" y="314.2" class="st0" width="334.2" height="198.6"/>
	</g>
	<g>
		<path class="st0" d="M969,547.4H843.3c-2.3,0-4.1-1.8-4.1-4.1l0,0c0-2.3,1.8-4.1,4.1-4.1H969c2.3,0,4.1,1.8,4.1,4.1l0,0
			C973,545.6,971.2,547.4,969,547.4z"/>
	</g>
	<g>
		<path class="st0" d="M1169.2,547.4h-50.8c-2.3,0-4.1-1.8-4.1-4.1l0,0c0-2.3,1.8-4.1,4.1-4.1h50.8c2.3,0,4.1,1.8,4.1,4.1l0,0
			C1173.3,545.6,1171.5,547.4,1169.2,547.4z"/>
	</g>
	<g>
		<path class="st0" d="M969,569.4H843.3c-2.3,0-4.1-1.8-4.1-4.1l0,0c0-2.3,1.8-4.1,4.1-4.1H969c2.3,0,4.1,1.8,4.1,4.1l0,0
			C973,567.6,971.2,569.4,969,569.4z"/>
	</g>
</g>
<g>
	<g>
		<rect x="610.3" y="342.2" class="st0" width="130.3" height="136.6"/>
	</g>
	<g>
		<g>
			<path class="st0" d="M680.8,500.8h-68.3c-1.2,0-2.2-1-2.2-2.2l0,0c0-1.2,1-2.2,2.2-2.2h68.3c1.2,0,2.2,1,2.2,2.2l0,0
				C683,499.8,682,500.8,680.8,500.8z"/>
		</g>
		<g>
			<path class="st0" d="M738.4,500.8h-27.6c-1.2,0-2.2-1-2.2-2.2l0,0c0-1.2,1-2.2,2.2-2.2h27.6c1.2,0,2.2,1,2.2,2.2l0,0
				C740.6,499.8,739.6,500.8,738.4,500.8z"/>
		</g>
		<g>
			<path class="st0" d="M680.8,512.8h-68.3c-1.2,0-2.2-1-2.2-2.2l0,0c0-1.2,1-2.2,2.2-2.2h68.3c1.2,0,2.2,1,2.2,2.2l0,0
				C683,511.8,682,512.8,680.8,512.8z"/>
		</g>
	</g>
</g>
<g>
	<g>
		<rect x="460.3" y="342.2" class="st0" width="130.3" height="136.6"/>
	</g>
	<g>
		<g>
			<path class="st0" d="M530.8,500.8h-68.3c-1.2,0-2.2-1-2.2-2.2l0,0c0-1.2,1-2.2,2.2-2.2h68.3c1.2,0,2.2,1,2.2,2.2l0,0
				C533,499.8,532,500.8,530.8,500.8z"/>
		</g>
		<g>
			<path class="st0" d="M588.3,500.8h-27.6c-1.2,0-2.2-1-2.2-2.2l0,0c0-1.2,1-2.2,2.2-2.2h27.6c1.2,0,2.2,1,2.2,2.2l0,0
				C590.6,499.8,589.6,500.8,588.3,500.8z"/>
		</g>
		<g>
			<path class="st0" d="M530.8,512.8h-68.3c-1.2,0-2.2-1-2.2-2.2l0,0c0-1.2,1-2.2,2.2-2.2h68.3c1.2,0,2.2,1,2.2,2.2l0,0
				C533,511.8,532,512.8,530.8,512.8z"/>
		</g>
	</g>
</g>
<g>
	<rect x="610.3" y="542.4" class="st0" width="130.3" height="20"/>
</g>
<g>
	<rect x="460.3" y="542.4" class="st0" width="130.3" height="20"/>
</g>
<g class="st4">
	<path class="st5" d="M953.9,491L821.3,702.3L810,725.2v49c0,9.6,7.7,17.3,17.3,17.3h4.4c71.8-133,136.6-311.1,136.6-311.1
		L953.9,491z"/>
</g>
<g>
	<g>
		<g>
			<path class="st0" d="M331.3,840.6c26.9,38,75.2,92.9,107.6,141c0,0,49.2-21.5,141-99.3c0.2-0.2,2.9-2.6,5.8-5.2
				c7.5-6.7,12.1-16.4,11.7-26.5c-0.8-20.4-0.2-36.9-0.2-36.9c9-22.2-11.5-55.4-11.5-55.4l46.1,23.4l-1.5,21.9
				c-0.6,8.7-4.7,16.8-11.5,22.3l-13.4,11c-2.9,2.3-4,6.2-2.8,9.7l0,0c2,6,9.4,8,14.1,3.8c48.9-42.8,125.2-117.3,167.7-164.8
				c41.1-45.9,104.6-125.3,174-210.8c4.5-5.5,12.5-0.8,9.7,5.7c-21.2,50.8-54.7,106.1-217.7,386.3c-15,25.8-11.8,176.5-11.9,264.9
				H530.9v-110c0,0-30.3,19.1-109.5,40.2c0,0-80-104.7-100.1-216.9C320.3,839,327.8,835.6,331.3,840.6z"/>
		</g>
	</g>
</g>
<g>
	<g>
		<g>
			<path class="st6" d="M591.4,761.1c0,0-1.5-19.3-12-29.3c0,0-24.5,24.1-41.9,48.4c-14.6,20.3-13.8,47.9,2.2,67.1
				c10.5,12.7,25.7,26.2,46.2,33.7c0,0,22.9-12,11.5-67.3C597.3,813.7,611.9,794.5,591.4,761.1z"/>
		</g>
	</g>
</g>
<g>
	<g>
		<g>
			<path class="st6" d="M931.7,507.9L931.7,507.9c8.5-10.4,17.5-21.4,27-33.2c4.5-5.5,12.5-0.8,9.7,5.7c-7.1,17.1-13.1,31.3-24,53.3
				L931.7,507.9z"/>
		</g>
	</g>
</g>
<g>
	<g>
		<g>
			<path class="st6" d="M332.6,890.2c-4.6-14.8-8.5-29.9-11.2-45.2c-1.1-6,6.5-9.4,10-4.4c6.7,9.4,14.6,19.9,23.4,31L332.6,890.2z"
				/>
		</g>
	</g>
</g>
<g>
	<g>
		<g>
			<path class="st2" d="M750.7,866.8c-15,25.8-11.8,176.5-11.9,264.9H530.9C642.3,1032.4,750.7,866.8,750.7,866.8z"/>
		</g>
	</g>
</g>
<g>
	<g>
		<g>
			
				<ellipse transform="matrix(0.1588 -0.9873 0.9873 0.1588 -465.5728 932.568)" class="st0" cx="314.5" cy="739.5" rx="68.3" ry="68.3"/>
		</g>
	</g>
</g>
<g>
	<g>
		<g>
			<g>
				<g>
					<path class="st1" d="M281.5,739.5l19.7-19.7c1.8-1.8,1.8-4.7,0-6.5l0,0c-1.8-1.8-4.7-1.8-6.5,0L275,733l-6.5,6.5l6.5,6.5
						l19.7,19.7c1.8,1.8,4.7,1.8,6.5,0l0,0c1.8-1.8,1.8-4.7,0-6.5L281.5,739.5z"/>
				</g>
			</g>
		</g>
		<g>
			<g>
				<g>
					<path class="st1" d="M347.5,739.5l-19.7-19.7c-1.8-1.8-1.8-4.7,0-6.5l0,0c1.8-1.8,4.7-1.8,6.5,0L354,733l6.5,6.5L354,746
						l-19.7,19.7c-1.8,1.8-4.7,1.8-6.5,0l0,0c-1.8-1.8-1.8-4.7,0-6.5L347.5,739.5z"/>
				</g>
			</g>
		</g>
	</g>
	<g>
		<g>
			<g>
				<path class="st1" d="M309.2,769.4L309.2,769.4c-2.3-0.4-3.9-2.6-3.5-5l9.2-51.4c0.4-2.3,2.6-3.9,5-3.5l0,0
					c2.3,0.4,3.9,2.6,3.5,5l-9.2,51.4C313.7,768.3,311.5,769.8,309.2,769.4z"/>
			</g>
		</g>
	</g>
</g>
<g>
	
		<ellipse transform="matrix(0.7071 -0.7071 0.7071 0.7071 -113.4223 1043.1124)" class="st0" cx="1202.4" cy="658.5" rx="104.5" ry="104.5"/>
</g>
<g>
	<path class="st1" d="M1232.6,616.5l-38.6,38.6l-21.8-21.8c-9.1-9.1-24.1-9.1-33.2,0c-9.1,9.1-9.1,24.1,0,33.2l38.4,38.4l0,0
		c9.1,9.1,24.1,9.1,33.2,0l55.2-55.2c9.1-9.1,9.1-24.1,0-33.2l0,0C1256.7,607.4,1241.8,607.4,1232.6,616.5z"/>
</g>
<g>
	<path class="st6" d="M1216.4,1132.7H893.9c-1.1,0-2-0.9-2-2v-11.8c0-1.1,0.9-2,2-2h322.6c1.1,0,2,0.9,2,2v11.8
		C1218.4,1131.8,1217.5,1132.7,1216.4,1132.7z"/>
</g>
<g>
	<polygon class="st6" points="1212.1,1132.7 966.6,1132.7 1020.4,960.2 1266,960.2 	"/>
</g>
<g>
	<path class="st1" d="M1143.9,1050.3c-2.7,11.6-12.3,19.3-21.4,17.2c-9.1-2.1-14.4-13.3-11.7-24.9c2.7-11.6,12.3-19.3,21.4-17.2
		C1141.4,1027.5,1146.6,1038.7,1143.9,1050.3z"/>
</g>
<g>
	<path class="st1" d="M261.2,570.7c-0.3,0-0.5-0.2-0.5-0.5v-79c0-0.3,0.2-0.5,0.5-0.5c0.3,0,0.5,0.2,0.5,0.5v79
		C261.7,570.5,261.5,570.7,261.2,570.7z"/>
</g>
<g>
	<path class="st1" d="M410.2,867.3h-38c-0.3,0-0.5-0.2-0.5-0.5c0-0.3,0.2-0.5,0.5-0.5h37V222.2h40.4c0.3,0,0.5,0.2,0.5,0.5
		c0,0.3-0.2,0.5-0.5,0.5h-39.4V867.3z"/>
</g>
<g>
	<path class="st1" d="M789.6,583.2H599.9v-35.8c0-0.3,0.2-0.5,0.5-0.5c0.3,0,0.5,0.2,0.5,0.5v34.8h187.7v-177h34.3
		c0.3,0,0.5,0.2,0.5,0.5c0,0.3-0.2,0.5-0.5,0.5h-33.3V583.2z"/>
</g>
</svg>
