<?xml version="1.0" encoding="utf-8"?>
<!-- Generator: Adobe Illustrator 25.3.1, SVG Export Plug-In . SVG Version: 6.00 Build 0)  -->
<svg version="1.1" id="Layer_1" xmlns="http://www.w3.org/2000/svg" xmlns:xlink="http://www.w3.org/1999/xlink" x="0px" y="0px"
	 viewBox="0 0 1920 1206" style="enable-background:new 0 0 1920 1206;" xml:space="preserve">
<style type="text/css">
	.st0{fill:#D8E7E7;}
	.st1{fill:#FFFFFF;}
	.st2{fill:#2F3A56;}
	.st3{fill:#3E6D97;}
	.st4{fill:#477EA8;}
	.st5{fill:#FF9E99;}
	.st6{fill:#A8CFD8;}
</style>
<g>
	<g>
		<g>
			<g>
				<path class="st0" d="M1295.9,875.4h-193.1c-0.7,0-1.3-0.6-1.3-1.3l0,0c0-0.7,0.6-1.3,1.3-1.3h193.1c0.7,0,1.3,0.6,1.3,1.3l0,0
					C1297.2,874.8,1296.6,875.4,1295.9,875.4z"/>
			</g>
		</g>
	</g>
	<g>
		<g>
			<g>
				<path class="st0" d="M1244.4,888.5H1179c-0.7,0-1.3-0.6-1.3-1.3l0,0c0-0.7,0.6-1.3,1.3-1.3h65.5c0.7,0,1.3,0.6,1.3,1.3l0,0
					C1245.7,887.9,1245.1,888.5,1244.4,888.5z"/>
			</g>
		</g>
	</g>
	<g>
		<g>
			<g>
				<path class="st0" d="M1323.7,888.5h-65.4c-0.7,0-1.3-0.6-1.3-1.3l0,0c0-0.7,0.6-1.3,1.3-1.3h65.4c0.7,0,1.3,0.6,1.3,1.3l0,0
					C1324.9,887.9,1324.4,888.5,1323.7,888.5z"/>
			</g>
		</g>
	</g>
	<g>
		<g>
			<g>
				<path class="st0" d="M1402.9,888.5h-65.4c-0.7,0-1.3-0.6-1.3-1.3l0,0c0-0.7,0.6-1.3,1.3-1.3h65.4c0.7,0,1.3,0.6,1.3,1.3l0,0
					C1404.2,887.9,1403.6,888.5,1402.9,888.5z"/>
			</g>
		</g>
	</g>
	<g>
		<g>
			<g>
				<path class="st0" d="M1426.7,888.5h-10c-0.7,0-1.3-0.6-1.3-1.3l0,0c0-0.7,0.6-1.3,1.3-1.3h10c0.7,0,1.3,0.6,1.3,1.3l0,0
					C1428,887.9,1427.4,888.5,1426.7,888.5z"/>
			</g>
		</g>
	</g>
	<g>
		<g>
			<g>
				<path class="st0" d="M1244.4,980h-141.6c-0.7,0-1.3-0.6-1.3-1.3l0,0c0-0.7,0.6-1.3,1.3-1.3h141.6c0.7,0,1.3,0.6,1.3,1.3l0,0
					C1245.7,979.4,1245.1,980,1244.4,980z"/>
			</g>
		</g>
	</g>
	<g>
		<g>
			<g>
				<path class="st0" d="M1326.7,980h-65.5c-0.7,0-1.3-0.6-1.3-1.3l0,0c0-0.7,0.6-1.3,1.3-1.3h65.5c0.7,0,1.3,0.6,1.3,1.3l0,0
					C1328,979.4,1327.4,980,1326.7,980z"/>
			</g>
		</g>
	</g>
	<g>
		<g>
			<g>
				<path class="st0" d="M1350.5,980h-10c-0.7,0-1.3-0.6-1.3-1.3l0,0c0-0.7,0.6-1.3,1.3-1.3h10c0.7,0,1.3,0.6,1.3,1.3l0,0
					C1351.8,979.4,1351.2,980,1350.5,980z"/>
			</g>
		</g>
	</g>
	<g>
		<g>
			<g>
				<path class="st0" d="M1168,993h-65.5c-0.7,0-1.3-0.6-1.3-1.3l0,0c0-0.7,0.6-1.3,1.3-1.3h65.5c0.7,0,1.3,0.6,1.3,1.3l0,0
					C1169.3,992.5,1168.7,993,1168,993z"/>
			</g>
		</g>
	</g>
	<g>
		<g>
			<g>
				<path class="st0" d="M1191.9,993h-10c-0.7,0-1.3-0.6-1.3-1.3l0,0c0-0.7,0.6-1.3,1.3-1.3h10c0.7,0,1.3,0.6,1.3,1.3l0,0
					C1193.1,992.5,1192.6,993,1191.9,993z"/>
			</g>
		</g>
	</g>
	<g>
		<g>
			<g>
				<path class="st0" d="M1214.7,993h-10c-0.7,0-1.3-0.6-1.3-1.3l0,0c0-0.7,0.6-1.3,1.3-1.3h10c0.7,0,1.3,0.6,1.3,1.3l0,0
					C1215.9,992.5,1215.4,993,1214.7,993z"/>
			</g>
		</g>
	</g>
	<g>
		<g>
			<g>
				<path class="st0" d="M1381.7,1006.1h-65.5c-0.7,0-1.3-0.6-1.3-1.3l0,0c0-0.7,0.6-1.3,1.3-1.3h65.5c0.7,0,1.3,0.6,1.3,1.3l0,0
					C1383,1005.5,1382.4,1006.1,1381.7,1006.1z"/>
			</g>
		</g>
	</g>
	<g>
		<g>
			<g>
				<path class="st0" d="M1168,1019.2h-65.5c-0.7,0-1.3-0.6-1.3-1.3l0,0c0-0.7,0.6-1.3,1.3-1.3h65.5c0.7,0,1.3,0.6,1.3,1.3l0,0
					C1169.3,1018.6,1168.7,1019.2,1168,1019.2z"/>
			</g>
		</g>
	</g>
	<g>
		<g>
			<g>
				<path class="st0" d="M1244.4,1019.2H1179c-0.7,0-1.3-0.6-1.3-1.3l0,0c0-0.7,0.6-1.3,1.3-1.3h65.5c0.7,0,1.3,0.6,1.3,1.3l0,0
					C1245.7,1018.6,1245.1,1019.2,1244.4,1019.2z"/>
			</g>
		</g>
	</g>
	<g>
		<g>
			<g>
				<path class="st0" d="M1405.5,1006.1h-10c-0.7,0-1.3-0.6-1.3-1.3l0,0c0-0.7,0.6-1.3,1.3-1.3h10c0.7,0,1.3,0.6,1.3,1.3l0,0
					C1406.8,1005.5,1406.2,1006.1,1405.5,1006.1z"/>
			</g>
		</g>
	</g>
	<g>
		<g>
			<g>
				<path class="st0" d="M1271.3,1019.2h-10c-0.7,0-1.3-0.6-1.3-1.3l0,0c0-0.7,0.6-1.3,1.3-1.3h10c0.7,0,1.3,0.6,1.3,1.3l0,0
					C1272.6,1018.6,1272,1019.2,1271.3,1019.2z"/>
			</g>
		</g>
	</g>
	<g>
		<g>
			<g>
				<path class="st0" d="M1218.4,1045.3h-10c-0.7,0-1.3-0.6-1.3-1.3l0,0c0-0.7,0.6-1.3,1.3-1.3h10c0.7,0,1.3,0.6,1.3,1.3l0,0
					C1219.7,1044.8,1219.1,1045.3,1218.4,1045.3z"/>
			</g>
		</g>
	</g>
	<g>
		<g>
			<g>
				<path class="st0" d="M1164.3,1058.4h-10c-0.7,0-1.3-0.6-1.3-1.3l0,0c0-0.7,0.6-1.3,1.3-1.3h10c0.7,0,1.3,0.6,1.3,1.3l0,0
					C1165.5,1057.8,1165,1058.4,1164.3,1058.4z"/>
			</g>
		</g>
	</g>
	<g>
		<g>
			<g>
				<path class="st0" d="M1264.5,1071.5h-10c-0.7,0-1.3-0.6-1.3-1.3l0,0c0-0.7,0.6-1.3,1.3-1.3h10c0.7,0,1.3,0.6,1.3,1.3l0,0
					C1265.8,1070.9,1265.2,1071.5,1264.5,1071.5z"/>
			</g>
		</g>
	</g>
	<g>
		<g>
			<g>
				<path class="st0" d="M1433.6,1019.2h-65.5c-0.7,0-1.3-0.6-1.3-1.3l0,0c0-0.7,0.6-1.3,1.3-1.3h65.5c0.7,0,1.3,0.6,1.3,1.3l0,0
					C1434.9,1018.6,1434.3,1019.2,1433.6,1019.2z"/>
			</g>
		</g>
	</g>
	<g>
		<g>
			<g>
				<path class="st0" d="M1380.1,1032.3h-65.5c-0.7,0-1.3-0.6-1.3-1.3l0,0c0-0.7,0.6-1.3,1.3-1.3h65.5c0.7,0,1.3,0.6,1.3,1.3l0,0
					C1381.4,1031.7,1380.8,1032.3,1380.1,1032.3z"/>
			</g>
		</g>
	</g>
	<g>
		<g>
			<g>
				<path class="st0" d="M1460.5,1019.2h-10c-0.7,0-1.3-0.6-1.3-1.3l0,0c0-0.7,0.6-1.3,1.3-1.3h10c0.7,0,1.3,0.6,1.3,1.3l0,0
					C1461.7,1018.6,1461.2,1019.2,1460.5,1019.2z"/>
			</g>
		</g>
	</g>
	<g>
		<g>
			<g>
				<path class="st0" d="M1296.9,1019.2h-10c-0.7,0-1.3-0.6-1.3-1.3l0,0c0-0.7,0.6-1.3,1.3-1.3h10c0.7,0,1.3,0.6,1.3,1.3l0,0
					C1298.2,1018.6,1297.6,1019.2,1296.9,1019.2z"/>
			</g>
		</g>
	</g>
	<g>
		<g>
			<g>
				<path class="st0" d="M1322.5,1019.2h-10c-0.7,0-1.3-0.6-1.3-1.3l0,0c0-0.7,0.6-1.3,1.3-1.3h10c0.7,0,1.3,0.6,1.3,1.3l0,0
					C1323.8,1018.6,1323.2,1019.2,1322.5,1019.2z"/>
			</g>
		</g>
	</g>
	<g>
		<g>
			<g>
				<path class="st0" d="M1348.1,1019.2h-10c-0.7,0-1.3-0.6-1.3-1.3l0,0c0-0.7,0.6-1.3,1.3-1.3h10c0.7,0,1.3,0.6,1.3,1.3l0,0
					C1349.4,1018.6,1348.8,1019.2,1348.1,1019.2z"/>
			</g>
		</g>
	</g>
	<g>
		<g>
			<g>
				<path class="st0" d="M1428.3,1006.1h-10c-0.7,0-1.3-0.6-1.3-1.3l0,0c0-0.7,0.6-1.3,1.3-1.3h10c0.7,0,1.3,0.6,1.3,1.3l0,0
					C1429.6,1005.5,1429,1006.1,1428.3,1006.1z"/>
			</g>
		</g>
	</g>
	<g>
		<g>
			<g>
				<path class="st0" d="M1237.5,993h-10c-0.7,0-1.3-0.6-1.3-1.3l0,0c0-0.7,0.6-1.3,1.3-1.3h10c0.7,0,1.3,0.6,1.3,1.3l0,0
					C1238.7,992.5,1238.2,993,1237.5,993z"/>
			</g>
		</g>
	</g>
	<g>
		<g>
			<g>
				<path class="st0" d="M1244.4,901.5H1179c-0.7,0-1.3-0.6-1.3-1.3l0,0c0-0.7,0.6-1.3,1.3-1.3h65.5c0.7,0,1.3,0.6,1.3,1.3l0,0
					C1245.7,901,1245.1,901.5,1244.4,901.5z"/>
			</g>
		</g>
	</g>
	<g>
		<g>
			<g>
				<path class="st0" d="M1244.4,940.8H1179c-0.7,0-1.3-0.6-1.3-1.3l0,0c0-0.7,0.6-1.3,1.3-1.3h65.5c0.7,0,1.3,0.6,1.3,1.3l0,0
					C1245.7,940.2,1245.1,940.8,1244.4,940.8z"/>
			</g>
		</g>
	</g>
	<g>
		<g>
			<g>
				<path class="st0" d="M1244.4,953.8H1179c-0.7,0-1.3-0.6-1.3-1.3l0,0c0-0.7,0.6-1.3,1.3-1.3h65.5c0.7,0,1.3,0.6,1.3,1.3l0,0
					C1245.7,953.3,1245.1,953.8,1244.4,953.8z"/>
			</g>
		</g>
	</g>
	<g>
		<g>
			<g>
				<path class="st0" d="M1244.4,966.9H1179c-0.7,0-1.3-0.6-1.3-1.3l0,0c0-0.7,0.6-1.3,1.3-1.3h65.5c0.7,0,1.3,0.6,1.3,1.3l0,0
					C1245.7,966.3,1245.1,966.9,1244.4,966.9z"/>
			</g>
		</g>
	</g>
	<g>
		<g>
			<g>
				<path class="st0" d="M1399.6,927.7h-65.5c-0.7,0-1.3-0.6-1.3-1.3l0,0c0-0.7,0.6-1.3,1.3-1.3h65.5c0.7,0,1.3,0.6,1.3,1.3l0,0
					C1400.9,927.1,1400.3,927.7,1399.6,927.7z"/>
			</g>
		</g>
	</g>
	<g>
		<g>
			<g>
				<path class="st0" d="M1268.2,901.5h-10c-0.7,0-1.3-0.6-1.3-1.3l0,0c0-0.7,0.6-1.3,1.3-1.3h10c0.7,0,1.3,0.6,1.3,1.3l0,0
					C1269.5,901,1268.9,901.5,1268.2,901.5z"/>
			</g>
		</g>
	</g>
	<g>
		<g>
			<g>
				<path class="st0" d="M1320,927.7h-10c-0.7,0-1.3-0.6-1.3-1.3l0,0c0-0.7,0.6-1.3,1.3-1.3h10c0.7,0,1.3,0.6,1.3,1.3l0,0
					C1321.2,927.1,1320.7,927.7,1320,927.7z"/>
			</g>
		</g>
	</g>
	<g>
		<g>
			<g>
				<path class="st0" d="M1400.5,914.6h-297.7c-0.7,0-1.3-0.6-1.3-1.3l0,0c0-0.7,0.6-1.3,1.3-1.3h297.7c0.7,0,1.3,0.6,1.3,1.3l0,0
					C1401.7,914,1401.2,914.6,1400.5,914.6z"/>
			</g>
		</g>
	</g>
	<g>
		<g>
			<g>
				<path class="st0" d="M1295.9,927.7h-193.1c-0.7,0-1.3-0.6-1.3-1.3l0,0c0-0.7,0.6-1.3,1.3-1.3h193.1c0.7,0,1.3,0.6,1.3,1.3l0,0
					C1297.2,927.1,1296.6,927.7,1295.9,927.7z"/>
			</g>
		</g>
	</g>
	<g>
		<g>
			<g>
				<path class="st0" d="M1295.9,1006.1h-193.1c-0.7,0-1.3-0.6-1.3-1.3l0,0c0-0.7,0.6-1.3,1.3-1.3h193.1c0.7,0,1.3,0.6,1.3,1.3l0,0
					C1297.2,1005.5,1296.6,1006.1,1295.9,1006.1z"/>
			</g>
		</g>
	</g>
	<g>
		<g>
			<g>
				<path class="st0" d="M1295.9,1032.3h-193.1c-0.7,0-1.3-0.6-1.3-1.3l0,0c0-0.7,0.6-1.3,1.3-1.3h193.1c0.7,0,1.3,0.6,1.3,1.3l0,0
					C1297.2,1031.7,1296.6,1032.3,1295.9,1032.3z"/>
			</g>
		</g>
	</g>
	<g>
		<g>
			<g>
				<path class="st0" d="M1196.8,1045.3h-94c-0.7,0-1.3-0.6-1.3-1.3l0,0c0-0.7,0.6-1.3,1.3-1.3h94c0.7,0,1.3,0.6,1.3,1.3l0,0
					C1198.1,1044.8,1197.5,1045.3,1196.8,1045.3z"/>
			</g>
		</g>
	</g>
	<g>
		<g>
			<g>
				<path class="st0" d="M1505.9,1058.4h-333.3c-0.7,0-1.3-0.6-1.3-1.3l0,0c0-0.7,0.6-1.3,1.3-1.3h333.3c0.7,0,1.3,0.6,1.3,1.3l0,0
					C1507.2,1057.8,1506.6,1058.4,1505.9,1058.4z"/>
			</g>
		</g>
	</g>
	<g>
		<g>
			<g>
				<path class="st0" d="M1238.3,1071.5h-65.8c-0.7,0-1.3-0.6-1.3-1.3l0,0c0-0.7,0.6-1.3,1.3-1.3h65.8c0.7,0,1.3,0.6,1.3,1.3l0,0
					C1239.6,1070.9,1239,1071.5,1238.3,1071.5z"/>
			</g>
		</g>
	</g>
	<g>
		<g>
			<g>
				<path class="st0" d="M1264.5,1110.7h-10c-0.7,0-1.3-0.6-1.3-1.3l0,0c0-0.7,0.6-1.3,1.3-1.3h10c0.7,0,1.3,0.6,1.3,1.3l0,0
					C1265.8,1110.1,1265.2,1110.7,1264.5,1110.7z"/>
			</g>
		</g>
	</g>
	<g>
		<g>
			<g>
				<path class="st0" d="M1238.3,1110.7h-65.8c-0.7,0-1.3-0.6-1.3-1.3l0,0c0-0.7,0.6-1.3,1.3-1.3h65.8c0.7,0,1.3,0.6,1.3,1.3l0,0
					C1239.6,1110.1,1239,1110.7,1238.3,1110.7z"/>
			</g>
		</g>
	</g>
	<g>
		<g>
			<g>
				<path class="st0" d="M1170,1084.6h-67.2c-0.7,0-1.3-0.6-1.3-1.3l0,0c0-0.7,0.6-1.3,1.3-1.3h67.2c0.7,0,1.3,0.6,1.3,1.3l0,0
					C1171.3,1084,1170.7,1084.6,1170,1084.6z"/>
			</g>
		</g>
	</g>
	<g>
		<g>
			<g>
				<path class="st0" d="M1264.5,1084.6h-67.2c-0.7,0-1.3-0.6-1.3-1.3l0,0c0-0.7,0.6-1.3,1.3-1.3h67.2c0.7,0,1.3,0.6,1.3,1.3l0,0
					C1265.8,1084,1265.2,1084.6,1264.5,1084.6z"/>
			</g>
		</g>
	</g>
	<g>
		<g>
			<g>
				<path class="st0" d="M1359,1084.6h-67.2c-0.7,0-1.3-0.6-1.3-1.3l0,0c0-0.7,0.6-1.3,1.3-1.3h67.2c0.7,0,1.3,0.6,1.3,1.3l0,0
					C1360.3,1084,1359.7,1084.6,1359,1084.6z"/>
			</g>
		</g>
	</g>
	<g>
		<g>
			<g>
				<path class="st0" d="M1295.9,1097.6h-193.1c-0.7,0-1.3-0.6-1.3-1.3l0,0c0-0.7,0.6-1.3,1.3-1.3h193.1c0.7,0,1.3,0.6,1.3,1.3l0,0
					C1297.2,1097.1,1296.6,1097.6,1295.9,1097.6z"/>
			</g>
		</g>
	</g>
	<g>
		<g>
			<g>
				<path class="st0" d="M1369.9,875.4h-53.7c-0.7,0-1.3-0.6-1.3-1.3l0,0c0-0.7,0.6-1.3,1.3-1.3h53.7c0.7,0,1.3,0.6,1.3,1.3l0,0
					C1371.2,874.8,1370.6,875.4,1369.9,875.4z"/>
			</g>
		</g>
	</g>
	<g>
		<g>
			<g>
				<path class="st0" d="M1552.4,875.4h-165.4c-0.7,0-1.3-0.6-1.3-1.3l0,0c0-0.7,0.6-1.3,1.3-1.3h165.4c0.7,0,1.3,0.6,1.3,1.3l0,0
					C1553.7,874.8,1553.1,875.4,1552.4,875.4z"/>
			</g>
		</g>
	</g>
</g>
<g>
	<g>
		<path class="st1" d="M1627.3,1170.8H293.2c-1.1,0-2-0.9-2-2c0-1.1,0.9-2,2-2h1334.1c1.1,0,2,0.9,2,2
			C1629.3,1169.9,1628.4,1170.8,1627.3,1170.8z"/>
	</g>
</g>
<g>
	<path class="st2" d="M677.7,1100.2H383.4c-2.4,0-4.4-2-4.4-4.4v-494c0-2.4,2-4.4,4.4-4.4h294.3c2.4,0,4.4,2,4.4,4.4v494
		C682.1,1098.2,680.1,1100.2,677.7,1100.2z"/>
</g>
<g>
	<path class="st2" d="M1056.8,597.4H726.6c-2.4,0-4.4-2-4.4-4.4V39.5c0-2.4,2-4.4,4.4-4.4h330.2c2.4,0,4.4,2,4.4,4.4v553.6
		C1061.2,595.5,1059.2,597.4,1056.8,597.4z"/>
</g>
<g>
	<path class="st2" d="M1489.3,826.6h-383.6c-2.4,0-4.4-2-4.4-4.4V180c0-2.4,2-4.4,4.4-4.4h383.6c2.4,0,4.4,2,4.4,4.4v642.2
		C1493.7,824.7,1491.7,826.6,1489.3,826.6z"/>
</g>
<g>
	<path class="st2" d="M677.7,537.8H427.3c-2.4,0-4.4-2-4.4-4.4V112.2c0-2.4,2-4.4,4.4-4.4h250.4c2.4,0,4.4,2,4.4,4.4v421.2
		C682.1,535.8,680.1,537.8,677.7,537.8z"/>
</g>
<g>
	
		<ellipse transform="matrix(0.9222 -0.3866 0.3866 0.9222 -59.7706 234.255)" class="st3" cx="552.5" cy="265.7" rx="66.1" ry="66.1"/>
</g>
<g>
	<path class="st4" d="M505.6,312.3c12,12.1,28.6,19.5,46.9,19.5s34.9-7.5,46.9-19.5c-4-18-18-32.3-36-36.5
		c7.4-3.9,12.5-11.7,12.5-20.7c0-12.9-10.5-23.4-23.4-23.4S529,242.1,529,255.1c0,9,5.1,16.8,12.5,20.7
		C523.6,280,509.5,294.2,505.6,312.3z"/>
</g>
<g>
	<path class="st3" d="M603.5,378.6H501.4c-2,0-3.6-1.6-3.6-3.6l0,0c0-2,1.6-3.6,3.6-3.6h102.1c2,0,3.6,1.6,3.6,3.6l0,0
		C607,377,605.4,378.6,603.5,378.6z"/>
</g>
<g>
	<path class="st3" d="M603.5,398.4H501.4c-2,0-3.6-1.6-3.6-3.6l0,0c0-2,1.6-3.6,3.6-3.6h102.1c2,0,3.6,1.6,3.6,3.6l0,0
		C607,396.8,605.4,398.4,603.5,398.4z"/>
</g>
<g>
	<path class="st5" d="M650.4,748.1H548.3c-2,0-3.6-1.6-3.6-3.6l0,0c0-2,1.6-3.6,3.6-3.6h102.1c2,0,3.6,1.6,3.6,3.6l0,0
		C653.9,746.5,652.3,748.1,650.4,748.1z"/>
</g>
<g>
	<path class="st5" d="M583.1,762.7h-36.9c-0.8,0-1.4-0.6-1.4-1.4l0,0c0-0.8,0.6-1.4,1.4-1.4h36.9c0.8,0,1.4,0.6,1.4,1.4l0,0
		C584.5,762.1,583.9,762.7,583.1,762.7z"/>
</g>
<g>
	<path class="st3" d="M583.1,824.5h-36.9c-0.8,0-1.4-0.6-1.4-1.4l0,0c0-0.8,0.6-1.4,1.4-1.4h36.9c0.8,0,1.4,0.6,1.4,1.4l0,0
		C584.5,823.9,583.9,824.5,583.1,824.5z"/>
</g>
<g>
	<path class="st3" d="M583.1,886.3h-36.9c-0.8,0-1.4-0.6-1.4-1.4l0,0c0-0.8,0.6-1.4,1.4-1.4h36.9c0.8,0,1.4,0.6,1.4,1.4l0,0
		C584.5,885.7,583.9,886.3,583.1,886.3z"/>
</g>
<g>
	<path class="st3" d="M583.1,948.1h-36.9c-0.8,0-1.4-0.6-1.4-1.4l0,0c0-0.8,0.6-1.4,1.4-1.4h36.9c0.8,0,1.4,0.6,1.4,1.4l0,0
		C584.5,947.5,583.9,948.1,583.1,948.1z"/>
</g>
<g>
	<path class="st3" d="M583.1,1010h-36.9c-0.8,0-1.4-0.6-1.4-1.4l0,0c0-0.8,0.6-1.4,1.4-1.4h36.9c0.8,0,1.4,0.6,1.4,1.4l0,0
		C584.5,1009.3,583.9,1010,583.1,1010z"/>
</g>
<g>
	<path class="st3" d="M583.1,1071.8h-36.9c-0.8,0-1.4-0.6-1.4-1.4l0,0c0-0.8,0.6-1.4,1.4-1.4h36.9c0.8,0,1.4,0.6,1.4,1.4l0,0
		C584.5,1071.1,583.9,1071.8,583.1,1071.8z"/>
</g>
<g>
	<path class="st5" d="M650.4,809.9H548.3c-2,0-3.6-1.6-3.6-3.6l0,0c0-2,1.6-3.6,3.6-3.6h102.1c2,0,3.6,1.6,3.6,3.6l0,0
		C653.9,808.3,652.3,809.9,650.4,809.9z"/>
</g>
<g>
	<path class="st3" d="M650.4,871.7H548.3c-2,0-3.6-1.6-3.6-3.6l0,0c0-2,1.6-3.6,3.6-3.6h102.1c2,0,3.6,1.6,3.6,3.6l0,0
		C653.9,870.1,652.3,871.7,650.4,871.7z"/>
</g>
<g>
	<path class="st3" d="M650.4,933.5H548.3c-2,0-3.6-1.6-3.6-3.6l0,0c0-2,1.6-3.6,3.6-3.6h102.1c2,0,3.6,1.6,3.6,3.6l0,0
		C653.9,931.9,652.3,933.5,650.4,933.5z"/>
</g>
<g>
	<path class="st3" d="M650.4,995.3H548.3c-2,0-3.6-1.6-3.6-3.6l0,0c0-2,1.6-3.6,3.6-3.6h102.1c2,0,3.6,1.6,3.6,3.6l0,0
		C653.9,993.7,652.3,995.3,650.4,995.3z"/>
</g>
<g>
	<path class="st3" d="M650.4,1057.1H548.3c-2,0-3.6-1.6-3.6-3.6l0,0c0-2,1.6-3.6,3.6-3.6h102.1c2,0,3.6,1.6,3.6,3.6l0,0
		C653.9,1055.5,652.3,1057.1,650.4,1057.1z"/>
</g>
<g>
	<g>
		<path class="st3" d="M421.5,620.5h-18.1c-0.7,0-1.3-0.6-1.3-1.3l0,0c0-0.7,0.6-1.3,1.3-1.3h18.1c0.7,0,1.3,0.6,1.3,1.3l0,0
			C422.9,619.9,422.3,620.5,421.5,620.5z"/>
	</g>
	<g>
		<path class="st3" d="M421.5,625.8h-18.1c-0.7,0-1.3-0.6-1.3-1.3l0,0c0-0.7,0.6-1.3,1.3-1.3h18.1c0.7,0,1.3,0.6,1.3,1.3l0,0
			C422.9,625.2,422.3,625.8,421.5,625.8z"/>
	</g>
	<g>
		<path class="st3" d="M421.5,631.1h-18.1c-0.7,0-1.3-0.6-1.3-1.3l0,0c0-0.7,0.6-1.3,1.3-1.3h18.1c0.7,0,1.3,0.6,1.3,1.3l0,0
			C422.9,630.5,422.3,631.1,421.5,631.1z"/>
	</g>
</g>
<g>
	<path class="st3" d="M641.6,693.5H419.5c-9.5,0-17.4-7.8-17.4-17.4l0,0c0-9.5,7.8-17.4,17.4-17.4h222.1c9.5,0,17.4,7.8,17.4,17.4
		l0,0C658.9,685.7,651.1,693.5,641.6,693.5z"/>
</g>
<g>
	<g>
		<path class="st3" d="M770.9,67.4h-18.1c-0.7,0-1.3-0.6-1.3-1.3l0,0c0-0.7,0.6-1.3,1.3-1.3h18.1c0.7,0,1.3,0.6,1.3,1.3l0,0
			C772.3,66.8,771.7,67.4,770.9,67.4z"/>
	</g>
	<g>
		<path class="st3" d="M770.9,72.7h-18.1c-0.7,0-1.3-0.6-1.3-1.3l0,0c0-0.7,0.6-1.3,1.3-1.3h18.1c0.7,0,1.3,0.6,1.3,1.3l0,0
			C772.3,72.1,771.7,72.7,770.9,72.7z"/>
	</g>
	<g>
		<path class="st3" d="M770.9,78h-18.1c-0.7,0-1.3-0.6-1.3-1.3l0,0c0-0.7,0.6-1.3,1.3-1.3h18.1c0.7,0,1.3,0.6,1.3,1.3l0,0
			C772.3,77.4,771.7,78,770.9,78z"/>
	</g>
</g>
<g>
	<path class="st3" d="M1014.5,140.4H768.9c-9.5,0-17.4-7.8-17.4-17.4l0,0c0-9.5,7.8-17.4,17.4-17.4h245.6c9.5,0,17.4,7.8,17.4,17.4
		l0,0C1031.8,132.6,1024,140.4,1014.5,140.4z"/>
</g>
<g>
	<path class="st3" d="M463,762.7h-42.6c-10,0-18.2-8.2-18.2-18.2l0,0c0-10,8.2-18.2,18.2-18.2H463c10,0,18.2,8.2,18.2,18.2l0,0
		C481.2,754.5,473,762.7,463,762.7z"/>
</g>
<g>
	<path class="st3" d="M463,824.5h-42.6c-10,0-18.2-8.2-18.2-18.2l0,0c0-10,8.2-18.2,18.2-18.2H463c10,0,18.2,8.2,18.2,18.2l0,0
		C481.2,816.4,473,824.5,463,824.5z"/>
</g>
<g>
	<path class="st3" d="M463,886.3h-42.6c-10,0-18.2-8.2-18.2-18.2l0,0c0-10,8.2-18.2,18.2-18.2H463c10,0,18.2,8.2,18.2,18.2l0,0
		C481.2,878.2,473,886.3,463,886.3z"/>
</g>
<g>
	<path class="st3" d="M463,948.1h-42.6c-10,0-18.2-8.2-18.2-18.2l0,0c0-10,8.2-18.2,18.2-18.2H463c10,0,18.2,8.2,18.2,18.2l0,0
		C481.2,940,473,948.1,463,948.1z"/>
</g>
<g>
	<path class="st3" d="M463,1010h-42.6c-10,0-18.2-8.2-18.2-18.2l0,0c0-10,8.2-18.2,18.2-18.2H463c10,0,18.2,8.2,18.2,18.2l0,0
		C481.2,1001.8,473,1010,463,1010z"/>
</g>
<g>
	<path class="st3" d="M463,1071.8h-42.6c-10,0-18.2-8.2-18.2-18.2l0,0c0-10,8.2-18.2,18.2-18.2H463c10,0,18.2,8.2,18.2,18.2l0,0
		C481.2,1063.6,473,1071.8,463,1071.8z"/>
</g>
<g>
	<g>
		<rect x="901.5" y="182.5" class="st3" width="130.3" height="136.6"/>
	</g>
	<g>
		<g>
			<path class="st3" d="M972,341.1h-68.3c-1.2,0-2.2-1-2.2-2.2l0,0c0-1.2,1-2.2,2.2-2.2H972c1.2,0,2.2,1,2.2,2.2l0,0
				C974.3,340.1,973.3,341.1,972,341.1z"/>
		</g>
		<g>
			<path class="st3" d="M1029.6,341.1H1002c-1.2,0-2.2-1-2.2-2.2l0,0c0-1.2,1-2.2,2.2-2.2h27.6c1.2,0,2.2,1,2.2,2.2l0,0
				C1031.8,340.1,1030.8,341.1,1029.6,341.1z"/>
		</g>
		<g>
			<path class="st3" d="M972,353.1h-68.3c-1.2,0-2.2-1-2.2-2.2l0,0c0-1.2,1-2.2,2.2-2.2H972c1.2,0,2.2,1,2.2,2.2l0,0
				C974.3,352.1,973.3,353.1,972,353.1z"/>
		</g>
	</g>
</g>
<g>
	<g>
		<rect x="751.5" y="182.5" class="st3" width="130.3" height="136.6"/>
	</g>
	<g>
		<g>
			<path class="st3" d="M822,341.1h-68.3c-1.2,0-2.2-1-2.2-2.2l0,0c0-1.2,1-2.2,2.2-2.2H822c1.2,0,2.2,1,2.2,2.2l0,0
				C824.2,340.1,823.2,341.1,822,341.1z"/>
		</g>
		<g>
			<path class="st3" d="M879.6,341.1H852c-1.2,0-2.2-1-2.2-2.2l0,0c0-1.2,1-2.2,2.2-2.2h27.6c1.2,0,2.2,1,2.2,2.2l0,0
				C881.8,340.1,880.8,341.1,879.6,341.1z"/>
		</g>
		<g>
			<path class="st3" d="M822,353.1h-68.3c-1.2,0-2.2-1-2.2-2.2l0,0c0-1.2,1-2.2,2.2-2.2H822c1.2,0,2.2,1,2.2,2.2l0,0
				C824.2,352.1,823.2,353.1,822,353.1z"/>
		</g>
	</g>
</g>
<g>
	<g>
		<g>
			<path class="st3" d="M1153.5,212.1H1132c-0.9,0-1.6-0.7-1.6-1.6l0,0c0-0.9,0.7-1.6,1.6-1.6h21.5c0.9,0,1.6,0.7,1.6,1.6l0,0
				C1155.1,211.4,1154.4,212.1,1153.5,212.1z"/>
		</g>
		<g>
			<path class="st3" d="M1153.5,218.4H1132c-0.9,0-1.6-0.7-1.6-1.6l0,0c0-0.9,0.7-1.6,1.6-1.6h21.5c0.9,0,1.6,0.7,1.6,1.6l0,0
				C1155.1,217.7,1154.4,218.4,1153.5,218.4z"/>
		</g>
		<g>
			<path class="st3" d="M1153.5,224.7H1132c-0.9,0-1.6-0.7-1.6-1.6l0,0c0-0.9,0.7-1.6,1.6-1.6h21.5c0.9,0,1.6,0.7,1.6,1.6l0,0
				C1155.1,224,1154.4,224.7,1153.5,224.7z"/>
		</g>
	</g>
	<g>
		<path class="st3" d="M1443.9,299.1h-292.8c-11.4,0-20.7-9.3-20.7-20.7l0,0c0-11.4,9.3-20.7,20.7-20.7h292.8
			c11.4,0,20.7,9.3,20.7,20.7l0,0C1464.6,289.8,1455.3,299.1,1443.9,299.1z"/>
	</g>
	<g>
		<path class="st3" d="M1341.8,785.9h-88.7c-10.7,0-19.5-8.8-19.5-19.5l0,0c0-10.7,8.8-19.5,19.5-19.5h88.7
			c10.7,0,19.5,8.8,19.5,19.5l0,0C1361.4,777.1,1352.6,785.9,1341.8,785.9z"/>
	</g>
	<g>
		<rect x="1130.4" y="349.3" class="st3" width="334.2" height="198.6"/>
	</g>
	<g>
		<path class="st3" d="M1260.2,582.5h-125.7c-2.3,0-4.1-1.8-4.1-4.1l0,0c0-2.3,1.8-4.1,4.1-4.1h125.7c2.3,0,4.1,1.8,4.1,4.1l0,0
			C1264.3,580.6,1262.5,582.5,1260.2,582.5z"/>
	</g>
	<g>
		<path class="st3" d="M1460.5,582.5h-50.8c-2.3,0-4.1-1.8-4.1-4.1l0,0c0-2.3,1.8-4.1,4.1-4.1h50.8c2.3,0,4.1,1.8,4.1,4.1l0,0
			C1464.6,580.6,1462.7,582.5,1460.5,582.5z"/>
	</g>
	<g>
		<path class="st3" d="M1260.2,604.5h-125.7c-2.3,0-4.1-1.8-4.1-4.1l0,0c0-2.3,1.8-4.1,4.1-4.1h125.7c2.3,0,4.1,1.8,4.1,4.1l0,0
			C1264.3,602.7,1262.5,604.5,1260.2,604.5z"/>
	</g>
</g>
<g>
	<g>
		<rect x="901.5" y="377.2" class="st3" width="130.3" height="136.6"/>
	</g>
	<g>
		<g>
			<path class="st3" d="M972,535.9h-68.3c-1.2,0-2.2-1-2.2-2.2l0,0c0-1.2,1-2.2,2.2-2.2H972c1.2,0,2.2,1,2.2,2.2l0,0
				C974.3,534.9,973.3,535.9,972,535.9z"/>
		</g>
		<g>
			<path class="st3" d="M1029.6,535.9H1002c-1.2,0-2.2-1-2.2-2.2l0,0c0-1.2,1-2.2,2.2-2.2h27.6c1.2,0,2.2,1,2.2,2.2l0,0
				C1031.8,534.9,1030.8,535.9,1029.6,535.9z"/>
		</g>
		<g>
			<path class="st3" d="M972,547.8h-68.3c-1.2,0-2.2-1-2.2-2.2l0,0c0-1.2,1-2.2,2.2-2.2H972c1.2,0,2.2,1,2.2,2.2l0,0
				C974.3,546.9,973.3,547.8,972,547.8z"/>
		</g>
	</g>
</g>
<g>
	<g>
		<rect x="751.5" y="377.2" class="st3" width="130.3" height="136.6"/>
	</g>
	<g>
		<g>
			<path class="st3" d="M822,535.9h-68.3c-1.2,0-2.2-1-2.2-2.2l0,0c0-1.2,1-2.2,2.2-2.2H822c1.2,0,2.2,1,2.2,2.2l0,0
				C824.2,534.9,823.2,535.9,822,535.9z"/>
		</g>
		<g>
			<path class="st3" d="M879.6,535.9H852c-1.2,0-2.2-1-2.2-2.2l0,0c0-1.2,1-2.2,2.2-2.2h27.6c1.2,0,2.2,1,2.2,2.2l0,0
				C881.8,534.9,880.8,535.9,879.6,535.9z"/>
		</g>
		<g>
			<path class="st3" d="M822,547.8h-68.3c-1.2,0-2.2-1-2.2-2.2l0,0c0-1.2,1-2.2,2.2-2.2H822c1.2,0,2.2,1,2.2,2.2l0,0
				C824.2,546.9,823.2,547.8,822,547.8z"/>
		</g>
	</g>
</g>
<g>
	<rect x="901.5" y="577.5" class="st3" width="130.3" height="20"/>
</g>
<g>
	<rect x="751.5" y="577.5" class="st3" width="130.3" height="20"/>
</g>
<g>
	<g>
		<g>
			<path class="st3" d="M622.6,875.6c26.9,38,75.2,92.9,107.6,141c0,0,49.2-21.5,141-99.3c0.2-0.2,2.9-2.6,5.8-5.2
				c7.5-6.7,12.1-16.4,11.7-26.5c-0.8-20.4-0.2-36.9-0.2-36.9c9-22.2-11.5-55.4-11.5-55.4l46.1,23.4l-1.5,21.9
				c-0.6,8.7-4.7,16.8-11.5,22.3l-13.4,11c-2.9,2.3-4,6.2-2.8,9.7l0,0c2,6,9.4,8,14.1,3.8c48.9-42.8,125.2-117.3,167.7-164.8
				c41.1-45.9,104.6-125.3,174-210.8c4.5-5.5,12.5-0.8,9.7,5.7c-21.2,50.8-54.7,106.1-217.7,386.3c-15,25.8-11.8,176.5-11.9,264.9
				H822.2v-110c0,0-30.3,19.1-109.5,40.2c0,0-80-104.7-100.1-216.9C611.5,874.1,619.1,870.7,622.6,875.6z"/>
		</g>
	</g>
</g>
<g>
	<g>
		<g>
			<path class="st2" d="M882.7,796.2c0,0-1.5-19.3-12-29.3c0,0-24.5,24.1-41.9,48.4c-14.6,20.3-13.8,47.9,2.2,67.1
				c10.5,12.7,25.7,26.2,46.2,33.7c0,0,22.9-12,11.5-67.3C888.6,848.8,903.1,829.6,882.7,796.2z"/>
		</g>
	</g>
</g>
<g>
	<g>
		<g>
			<path class="st4" d="M1222.9,543L1222.9,543c8.5-10.4,17.5-21.4,27-33.2c4.5-5.5,12.5-0.8,9.7,5.7c-7.1,17.1-13.1,31.3-24,53.3
				L1222.9,543z"/>
		</g>
	</g>
</g>
<g>
	<g>
		<g>
			<path class="st4" d="M623.8,925.3c-4.6-14.8-8.5-29.9-11.2-45.2c-1.1-6,6.5-9.4,10-4.4c6.7,9.4,14.6,19.9,23.4,31L623.8,925.3z"
				/>
		</g>
	</g>
</g>
<g>
	<g>
		<g>
			<path class="st2" d="M1041.9,901.9c-15,25.8-11.8,176.5-11.9,264.9H822.2C933.6,1067.5,1041.9,901.9,1041.9,901.9z"/>
		</g>
	</g>
</g>
<g>
	<g>
		<g>
			
				<ellipse transform="matrix(0.1588 -0.9873 0.9873 0.1588 -255.2034 1249.6178)" class="st3" cx="605.8" cy="774.6" rx="68.3" ry="68.3"/>
		</g>
	</g>
</g>
<g>
	<g>
		<g>
			<g>
				<g>
					<path class="st4" d="M572.8,774.6l19.7-19.7c1.8-1.8,1.8-4.7,0-6.5l0,0c-1.8-1.8-4.7-1.8-6.5,0l-19.7,19.7l-6.5,6.5l6.5,6.5
						l19.7,19.7c1.8,1.8,4.7,1.8,6.5,0l0,0c1.8-1.8,1.8-4.7,0-6.5L572.8,774.6z"/>
				</g>
			</g>
		</g>
		<g>
			<g>
				<g>
					<path class="st4" d="M638.7,774.6L619,754.9c-1.8-1.8-1.8-4.7,0-6.5l0,0c1.8-1.8,4.7-1.8,6.5,0l19.7,19.7l6.5,6.5l-6.5,6.5
						l-19.7,19.7c-1.8,1.8-4.7,1.8-6.5,0l0,0c-1.8-1.8-1.8-4.7,0-6.5L638.7,774.6z"/>
				</g>
			</g>
		</g>
	</g>
	<g>
		<g>
			<g>
				<path class="st4" d="M600.4,804.5L600.4,804.5c-2.3-0.4-3.9-2.6-3.5-5l9.2-51.4c0.4-2.3,2.6-3.9,5-3.5l0,0
					c2.3,0.4,3.9,2.6,3.5,5l-9.2,51.4C605,803.4,602.8,804.9,600.4,804.5z"/>
			</g>
		</g>
	</g>
</g>
<g>
	
		<ellipse transform="matrix(0.7071 -0.7071 0.7071 0.7071 -52.9109 1259.3293)" class="st3" cx="1493.7" cy="693.5" rx="104.5" ry="104.5"/>
</g>
<g>
	<path class="st4" d="M1523.9,651.6l-38.6,38.6l-21.8-21.8c-9.1-9.1-24.1-9.1-33.2,0c-9.1,9.1-9.1,24.1,0,33.2l38.4,38.4l0,0
		c9.1,9.1,24.1,9.1,33.2,0l55.2-55.2c9.1-9.1,9.1-24.1,0-33.2l0,0C1547.9,642.5,1533,642.5,1523.9,651.6z"/>
</g>
<g>
	<path class="st2" d="M1507.7,1167.7h-322.6c-1.1,0-2-0.9-2-2v-11.8c0-1.1,0.9-2,2-2h322.6c1.1,0,2,0.9,2,2v11.8
		C1509.7,1166.8,1508.8,1167.7,1507.7,1167.7z"/>
</g>
<g>
	<polygon class="st2" points="1503.4,1167.7 1257.8,1167.7 1311.7,995.3 1557.2,995.3 	"/>
</g>
<g>
	<path class="st6" d="M1435.2,1085.4c-2.7,11.6-12.3,19.3-21.4,17.2c-9.1-2.1-14.4-13.3-11.7-24.9c2.7-11.6,12.3-19.3,21.4-17.2
		C1432.6,1062.6,1437.9,1073.7,1435.2,1085.4z"/>
</g>
<g>
	<path class="st3" d="M552.5,605.7c-0.3,0-0.5-0.2-0.5-0.5v-79c0-0.3,0.2-0.5,0.5-0.5c0.3,0,0.5,0.2,0.5,0.5v79
		C553,605.5,552.7,605.7,552.5,605.7z"/>
</g>
<g>
	<path class="st3" d="M701.5,902.4h-38c-0.3,0-0.5-0.2-0.5-0.5s0.2-0.5,0.5-0.5h37V257.3h40.4c0.3,0,0.5,0.2,0.5,0.5
		c0,0.3-0.2,0.5-0.5,0.5h-39.4V902.4z"/>
</g>
<g>
	<path class="st3" d="M1080.8,618.2H891.2v-35.8c0-0.3,0.2-0.5,0.5-0.5c0.3,0,0.5,0.2,0.5,0.5v34.8h187.7v-177h34.3
		c0.3,0,0.5,0.2,0.5,0.5c0,0.3-0.2,0.5-0.5,0.5h-33.3V618.2z"/>
</g>
</svg>
