<?xml version="1.0" encoding="utf-8"?>
<!-- Generator: Adobe Illustrator 25.3.1, SVG Export Plug-In . SVG Version: 6.00 Build 0)  -->
<svg version="1.1" id="Layer_1" xmlns="http://www.w3.org/2000/svg" xmlns:xlink="http://www.w3.org/1999/xlink" x="0px" y="0px"
	 viewBox="0 0 62 28" style="enable-background:new 0 0 62 28;" xml:space="preserve">
<style type="text/css">
	.st0{enable-background:new    ;}
</style>
<g class="st0">
	<path d="M4.7,14.8h-4V4.9h3.4c1.7,0,2.8,1.1,2.8,2.5c0,1-0.4,1.8-1.2,2.1c1.1,0.3,2,1.1,2,2.5C7.7,13.6,6.5,14.8,4.7,14.8z
		 M3.6,6.6H2.8v2.3h0.8c0.6,0,1.1-0.5,1.1-1.1C4.7,7.1,4.2,6.6,3.6,6.6z M4.2,10.7H2.8v2.4h1.4c0.7,0,1.2-0.5,1.2-1.2
		C5.4,11.2,4.9,10.7,4.2,10.7z"/>
	<path d="M15.6,11.6c0,2.1-1.6,3.3-3.7,3.3c-2,0-3.7-1.3-3.7-3.3c0-2,1.7-3.3,3.7-3.3C14,8.2,15.6,9.6,15.6,11.6z M13.5,11.6
		c0-0.8-0.3-1.7-1.5-1.7c-1.1,0-1.5,0.9-1.5,1.7c0,0.8,0.3,1.7,1.5,1.7C13.1,13.2,13.5,12.4,13.5,11.6z"/>
	<path d="M17,14.8V3.9h2.2v10.9H17z"/>
	<path d="M27.9,11.6c0,2.1-1.6,3.3-3.6,3.3c-2.1,0-3.7-1.3-3.7-3.3c0-2,1.7-3.3,3.7-3.3C26.2,8.2,27.9,9.6,27.9,11.6z M25.7,11.6
		c0-0.8-0.3-1.7-1.5-1.7c-1.1,0-1.5,0.9-1.5,1.7c0,0.8,0.3,1.7,1.5,1.7C25.4,13.2,25.7,12.4,25.7,11.6z"/>
	<path d="M31.5,11.6v3.2h-2.2V8.3h2.2v0.8c0.3-0.5,0.9-0.9,1.7-0.9c0.2,0,0.5,0.1,0.7,0.1v2h0c-0.2-0.3-0.5-0.4-0.9-0.4
		C32.1,10,31.5,10.8,31.5,11.6z"/>
	<path d="M36,4.9c0.7,0,1.3,0.6,1.3,1.3c0,0.7-0.6,1.3-1.3,1.3c-0.7,0-1.3-0.6-1.3-1.3C34.7,5.4,35.3,4.9,36,4.9z M34.9,14.8V8.3
		h2.2v6.4H34.9z"/>
	<path d="M45.4,14.8h-2.2v-3.6c0-0.8-0.3-1.2-1-1.2s-1.2,0.7-1.2,1.6v3.2h-2.2V8.3h2.2v0.8c0.4-0.6,1.1-0.9,2-0.9
		c1.7,0,2.4,1.2,2.4,2.9V14.8z"/>
	<path d="M53.9,11.6c0,2.1-1.6,3.3-3.7,3.3c-2,0-3.7-1.3-3.7-3.3c0-2,1.7-3.3,3.7-3.3C52.3,8.2,53.9,9.6,53.9,11.6z M51.8,11.6
		c0-0.8-0.3-1.7-1.5-1.7c-1.1,0-1.5,0.9-1.5,1.7c0,0.8,0.3,1.7,1.5,1.7C51.4,13.2,51.8,12.4,51.8,11.6z"/>
	<path d="M59.1,10.3c-0.1-0.6-0.6-0.7-1-0.7s-0.9,0.2-0.9,0.6c0,0.9,4.1,0,4.1,2.7c0,1.5-1.3,2.1-3.2,2.1c-1.9,0-3.3-0.7-3.5-2.5
		h2.2c0,1,0.9,1,1.3,1c0.5,0,0.9-0.2,0.9-0.5c0-1.4-4.1-0.3-4.1-2.6c0-1.3,1-2,3.1-2c1.7,0,2.9,0.6,3.1,2.1H59.1z"/>
</g>
<g class="st0">
	<path d="M9.3,23.7v-0.4h2.3v0.4H9.3z"/>
	<path d="M16.7,23.1c-0.1-0.2-0.2-0.4-0.4-0.5c-0.2-0.1-0.4-0.2-0.5-0.2c-0.2,0-0.3,0-0.5,0.1s-0.2,0.1-0.3,0.2
		c-0.2,0.2-0.3,0.5-0.3,0.8c0,0.3,0.1,0.6,0.3,0.8c0.2,0.2,0.5,0.3,0.8,0.3c0.2,0,0.4-0.1,0.5-0.2c0.2-0.1,0.3-0.2,0.4-0.4h0.6
		c-0.2,0.5-0.5,0.8-1,1c-0.2,0.1-0.3,0.1-0.5,0.1s-0.4,0-0.6-0.1s-0.4-0.2-0.5-0.4c-0.3-0.3-0.5-0.7-0.5-1.1c0-0.4,0.2-0.8,0.5-1.1
		c0.3-0.3,0.7-0.5,1.1-0.5c0.4,0,0.7,0.1,1,0.3c0.3,0.2,0.5,0.5,0.6,0.8H16.7z"/>
	<path d="M20.5,24.6c-0.3,0.3-0.7,0.5-1.1,0.5c-0.4,0-0.8-0.2-1.1-0.5c-0.3-0.3-0.5-0.7-0.5-1.1c0-0.4,0.2-0.8,0.5-1.1
		c0.3-0.3,0.7-0.5,1.1-0.5c0.4,0,0.8,0.2,1.1,0.5c0.3,0.3,0.5,0.7,0.5,1.1C21,24,20.8,24.3,20.5,24.6z M20.2,22.7
		c-0.2-0.2-0.5-0.3-0.8-0.3c-0.3,0-0.6,0.1-0.8,0.3c-0.2,0.2-0.3,0.5-0.3,0.8c0,0.3,0.1,0.6,0.3,0.8s0.5,0.3,0.8,0.3
		c0.3,0,0.6-0.1,0.8-0.3s0.3-0.5,0.3-0.8C20.5,23.2,20.4,22.9,20.2,22.7z"/>
	<path d="M24,23.1c0-0.2,0-0.4-0.1-0.5c-0.1-0.1-0.2-0.2-0.5-0.2c-0.2,0-0.4,0-0.5,0.1c-0.1,0.1-0.2,0.2-0.3,0.3
		c-0.1,0.2-0.2,0.5-0.2,0.9v1.3h-0.5V22h0.5v0.5c0.1-0.2,0.2-0.3,0.4-0.4c0.2-0.1,0.4-0.2,0.6-0.2c0.2,0,0.4,0,0.5,0.1
		c0.1,0.1,0.2,0.1,0.3,0.3c0.2,0.2,0.3,0.5,0.3,0.9v1.9H24V23.1z"/>
	<path d="M26.3,24.7c0.4,0,0.7-0.2,0.7-0.5c0-0.2-0.2-0.3-0.5-0.5c-0.1,0-0.3-0.1-0.4-0.1c-0.2,0-0.3-0.1-0.4-0.2
		c-0.2-0.1-0.3-0.2-0.4-0.3c-0.1-0.1-0.1-0.2-0.1-0.4c0-0.3,0.1-0.5,0.3-0.7c0.2-0.2,0.5-0.2,0.8-0.2c0.3,0,0.5,0.1,0.7,0.2
		c0.2,0.1,0.3,0.3,0.4,0.6h-0.5c-0.1-0.2-0.1-0.3-0.2-0.3c-0.1-0.1-0.2-0.1-0.4-0.1c-0.2,0-0.3,0-0.4,0.1c-0.1,0.1-0.2,0.2-0.2,0.3
		s0,0.2,0.1,0.3c0.1,0.1,0.2,0.1,0.3,0.2s0.3,0.1,0.4,0.1c0.2,0,0.3,0.1,0.4,0.2c0.3,0.2,0.5,0.4,0.5,0.7s-0.1,0.6-0.4,0.7
		c-0.1,0.1-0.3,0.1-0.4,0.2c-0.1,0-0.3,0.1-0.5,0.1c-0.7,0-1.1-0.3-1.2-1h0.5c0.1,0.2,0.1,0.3,0.3,0.4C26,24.7,26.1,24.7,26.3,24.7z
		"/>
	<path d="M29.3,25.1c-0.3,0-0.6-0.1-0.8-0.3c-0.2-0.2-0.3-0.5-0.3-0.9V22h0.5v1.9c0,0.2,0,0.4,0.1,0.5c0.1,0.1,0.2,0.2,0.5,0.2
		c0.4,0,0.7-0.1,0.8-0.4c0.2-0.2,0.2-0.6,0.2-1V22h0.5v3.1h-0.5v-0.5C30.1,24.9,29.8,25.1,29.3,25.1z"/>
	<path d="M31.8,25.1v-5.3h0.5v5.3H31.8z"/>
	<path d="M32.9,22h0.8v-1.2h0.5V22h0.8v0.5h-0.8v2.6h-0.5v-2.6h-0.8V22z"/>
	<path d="M38.1,25.1v-0.5c0,0-0.1,0.1-0.1,0.1c-0.3,0.3-0.6,0.5-1.1,0.5s-0.8-0.2-1.1-0.5c-0.3-0.3-0.4-0.7-0.4-1.1s0.1-0.8,0.4-1.1
		c0.3-0.3,0.6-0.5,1.1-0.5s0.8,0.2,1.1,0.5c0,0,0.1,0.1,0.1,0.1V22h0.5v3.1H38.1z M37.8,22.7c-0.2-0.2-0.5-0.3-0.8-0.3
		c-0.3,0-0.6,0.1-0.8,0.3c-0.2,0.2-0.3,0.5-0.3,0.8s0.1,0.6,0.3,0.8c0.2,0.2,0.5,0.3,0.8,0.3c0.3,0,0.6-0.1,0.8-0.3
		c0.2-0.2,0.3-0.5,0.3-0.8S38,23,37.8,22.7z"/>
	<path d="M41.7,23.1c0-0.2,0-0.4-0.1-0.5c-0.1-0.1-0.2-0.2-0.5-0.2c-0.2,0-0.4,0-0.5,0.1c-0.1,0.1-0.2,0.2-0.3,0.3
		c-0.1,0.2-0.2,0.5-0.2,0.9v1.3h-0.5V22h0.5v0.5c0.1-0.2,0.2-0.3,0.4-0.4c0.2-0.1,0.4-0.2,0.6-0.2c0.2,0,0.4,0,0.5,0.1
		c0.1,0.1,0.2,0.1,0.3,0.3c0.2,0.2,0.3,0.5,0.3,0.9v1.9h-0.5V23.1z"/>
	<path d="M42.8,22h0.8v-1.2H44V22h0.8v0.5H44v2.6h-0.5v-2.6h-0.8V22z"/>
	<path d="M46.4,24.7c0.4,0,0.7-0.2,0.7-0.5c0-0.2-0.2-0.3-0.5-0.5c-0.1,0-0.3-0.1-0.4-0.1c-0.2,0-0.3-0.1-0.4-0.2
		c-0.2-0.1-0.3-0.2-0.4-0.3c-0.1-0.1-0.1-0.2-0.1-0.4c0-0.3,0.1-0.5,0.3-0.7c0.2-0.2,0.5-0.2,0.8-0.2c0.3,0,0.5,0.1,0.7,0.2
		c0.2,0.1,0.3,0.3,0.4,0.6h-0.5c-0.1-0.2-0.1-0.3-0.2-0.3c-0.1-0.1-0.2-0.1-0.4-0.1c-0.2,0-0.3,0-0.4,0.1c-0.1,0.1-0.2,0.2-0.2,0.3
		s0,0.2,0.1,0.3c0.1,0.1,0.2,0.1,0.3,0.2s0.3,0.1,0.4,0.1c0.2,0,0.3,0.1,0.4,0.2c0.3,0.2,0.5,0.4,0.5,0.7s-0.1,0.6-0.4,0.7
		c-0.1,0.1-0.3,0.1-0.4,0.2c-0.1,0-0.3,0.1-0.5,0.1c-0.7,0-1.1-0.3-1.2-1h0.5c0.1,0.2,0.1,0.3,0.3,0.4C46,24.7,46.2,24.7,46.4,24.7z
		"/>
	<path d="M49.9,23.7v-0.4h2.3v0.4H49.9z"/>
</g>
</svg>
